<?xml version="1.0" encoding="UTF-8" standalone="no"?>
<!DOCTYPE svg PUBLIC "-//W3C//DTD SVG 1.1//EN"
 "http://www.w3.org/Graphics/SVG/1.1/DTD/svg11.dtd">
<!-- Generated by graphviz version 2.40.1 (20161225.0304)
 -->
<!-- Title: G Pages: 1 -->
<svg width="433pt" height="876pt"
 viewBox="0.00 0.00 432.79 876.00" xmlns="http://www.w3.org/2000/svg" xmlns:xlink="http://www.w3.org/1999/xlink">
<g id="graph0" class="graph" transform="scale(1 1) rotate(0) translate(4 872)">
<title>G</title>
<polygon fill="#ffffff" stroke="transparent" points="-4,4 -4,-872 428.7935,-872 428.7935,4 -4,4"/>
<g id="clust1" class="cluster">
<title>cluster_Global</title>
<path fill="none" stroke="#c0c0c0" d="M136.2935,-8C136.2935,-8 404.7935,-8 404.7935,-8 410.7935,-8 416.7935,-14 416.7935,-20 416.7935,-20 416.7935,-848 416.7935,-848 416.7935,-854 410.7935,-860 404.7935,-860 404.7935,-860 136.2935,-860 136.2935,-860 130.2935,-860 124.2935,-854 124.2935,-848 124.2935,-848 124.2935,-20 124.2935,-20 124.2935,-14 130.2935,-8 136.2935,-8"/>
<text text-anchor="middle" x="270.5435" y="-847.2" font-family="Times,serif" font-size="11.00" fill="#c0c0c0">Global</text>
</g>
<g id="clust2" class="cluster">
<title>cluster_\App</title>
<path fill="none" stroke="#c0c0c0" d="M285.7935,-16C285.7935,-16 396.7935,-16 396.7935,-16 402.7935,-16 408.7935,-22 408.7935,-28 408.7935,-28 408.7935,-820 408.7935,-820 408.7935,-826 402.7935,-832 396.7935,-832 396.7935,-832 285.7935,-832 285.7935,-832 279.7935,-832 273.7935,-826 273.7935,-820 273.7935,-820 273.7935,-28 273.7935,-28 273.7935,-22 279.7935,-16 285.7935,-16"/>
<text text-anchor="middle" x="341.2935" y="-819.2" font-family="Times,serif" font-size="11.00" fill="#c0c0c0">App</text>
</g>
<g id="clust3" class="cluster">
<title>cluster_\App\Controllers</title>
<path fill="none" stroke="#c0c0c0" d="M318.2935,-678C318.2935,-678 364.2935,-678 364.2935,-678 370.2935,-678 376.2935,-684 376.2935,-690 376.2935,-690 376.2935,-792 376.2935,-792 376.2935,-798 370.2935,-804 364.2935,-804 364.2935,-804 318.2935,-804 318.2935,-804 312.2935,-804 306.2935,-798 306.2935,-792 306.2935,-792 306.2935,-690 306.2935,-690 306.2935,-684 312.2935,-678 318.2935,-678"/>
<text text-anchor="middle" x="341.2935" y="-791.2" font-family="Times,serif" font-size="11.00" fill="#c0c0c0">Controllers</text>
</g>
<g id="clust4" class="cluster">
<title>cluster_\App\Models</title>
<path fill="none" stroke="#c0c0c0" d="M297.7935,-544C297.7935,-544 384.7935,-544 384.7935,-544 390.7935,-544 396.7935,-550 396.7935,-556 396.7935,-556 396.7935,-658 396.7935,-658 396.7935,-664 390.7935,-670 384.7935,-670 384.7935,-670 297.7935,-670 297.7935,-670 291.7935,-670 285.7935,-664 285.7935,-658 285.7935,-658 285.7935,-556 285.7935,-556 285.7935,-550 291.7935,-544 297.7935,-544"/>
<text text-anchor="middle" x="341.2935" y="-657.2" font-family="Times,serif" font-size="11.00" fill="#c0c0c0">Models</text>
</g>
<g id="clust5" class="cluster">
<title>cluster_\App\Config</title>
<path fill="none" stroke="#c0c0c0" d="M293.7935,-24C293.7935,-24 388.7935,-24 388.7935,-24 394.7935,-24 400.7935,-30 400.7935,-36 400.7935,-36 400.7935,-524 400.7935,-524 400.7935,-530 394.7935,-536 388.7935,-536 388.7935,-536 293.7935,-536 293.7935,-536 287.7935,-536 281.7935,-530 281.7935,-524 281.7935,-524 281.7935,-36 281.7935,-36 281.7935,-30 287.7935,-24 293.7935,-24"/>
<text text-anchor="middle" x="341.2935" y="-523.2" font-family="Times,serif" font-size="11.00" fill="#c0c0c0">Config</text>
</g>
<g id="clust6" class="cluster">
<title>cluster_\App\Config\tests</title>
<path fill="none" stroke="#c0c0c0" d="M301.7935,-238C301.7935,-238 380.7935,-238 380.7935,-238 386.7935,-238 392.7935,-244 392.7935,-250 392.7935,-250 392.7935,-496 392.7935,-496 392.7935,-502 386.7935,-508 380.7935,-508 380.7935,-508 301.7935,-508 301.7935,-508 295.7935,-508 289.7935,-502 289.7935,-496 289.7935,-496 289.7935,-250 289.7935,-250 289.7935,-244 295.7935,-238 301.7935,-238"/>
<text text-anchor="middle" x="341.2935" y="-495.2" font-family="Times,serif" font-size="11.00" fill="#c0c0c0">tests</text>
</g>
<g id="clust7" class="cluster">
<title>cluster_\App\Config\tests\units</title>
<path fill="none" stroke="#c0c0c0" d="M309.7935,-246C309.7935,-246 372.7935,-246 372.7935,-246 378.7935,-246 384.7935,-252 384.7935,-258 384.7935,-258 384.7935,-468 384.7935,-468 384.7935,-474 378.7935,-480 372.7935,-480 372.7935,-480 309.7935,-480 309.7935,-480 303.7935,-480 297.7935,-474 297.7935,-468 297.7935,-468 297.7935,-258 297.7935,-258 297.7935,-252 303.7935,-246 309.7935,-246"/>
<text text-anchor="middle" x="341.2935" y="-467.2" font-family="Times,serif" font-size="11.00" fill="#c0c0c0">units</text>
</g>
<g id="clust8" class="cluster">
<title>cluster_\Core</title>
<path fill="none" stroke="#c0c0c0" d="M144.2935,-78C144.2935,-78 222.2935,-78 222.2935,-78 228.2935,-78 234.2935,-84 234.2935,-90 234.2935,-90 234.2935,-820 234.2935,-820 234.2935,-826 228.2935,-832 222.2935,-832 222.2935,-832 144.2935,-832 144.2935,-832 138.2935,-832 132.2935,-826 132.2935,-820 132.2935,-820 132.2935,-90 132.2935,-90 132.2935,-84 138.2935,-78 144.2935,-78"/>
<text text-anchor="middle" x="183.2935" y="-819.2" font-family="Times,serif" font-size="11.00" fill="#c0c0c0">Core</text>
</g>
<g id="clust9" class="cluster">
<title>cluster_\Core\Helpers</title>
<path fill="none" stroke="#c0c0c0" d="M160.2935,-732C160.2935,-732 206.2935,-732 206.2935,-732 212.2935,-732 218.2935,-738 218.2935,-744 218.2935,-744 218.2935,-792 218.2935,-792 218.2935,-798 212.2935,-804 206.2935,-804 206.2935,-804 160.2935,-804 160.2935,-804 154.2935,-804 148.2935,-798 148.2935,-792 148.2935,-792 148.2935,-744 148.2935,-744 148.2935,-738 154.2935,-732 160.2935,-732"/>
<text text-anchor="middle" x="183.2935" y="-791.2" font-family="Times,serif" font-size="11.00" fill="#c0c0c0">Helpers</text>
</g>
<g id="clust10" class="cluster">
<title>cluster_\Core\tests</title>
<path fill="none" stroke="#c0c0c0" d="M152.2935,-562C152.2935,-562 214.2935,-562 214.2935,-562 220.2935,-562 226.2935,-568 226.2935,-574 226.2935,-574 226.2935,-712 226.2935,-712 226.2935,-718 220.2935,-724 214.2935,-724 214.2935,-724 152.2935,-724 152.2935,-724 146.2935,-724 140.2935,-718 140.2935,-712 140.2935,-712 140.2935,-574 140.2935,-574 140.2935,-568 146.2935,-562 152.2935,-562"/>
<text text-anchor="middle" x="183.2935" y="-711.2" font-family="Times,serif" font-size="11.00" fill="#c0c0c0">tests</text>
</g>
<g id="clust11" class="cluster">
<title>cluster_\Core\tests\units</title>
<path fill="none" stroke="#c0c0c0" d="M160.2935,-570C160.2935,-570 206.2935,-570 206.2935,-570 212.2935,-570 218.2935,-576 218.2935,-582 218.2935,-582 218.2935,-684 218.2935,-684 218.2935,-690 212.2935,-696 206.2935,-696 206.2935,-696 160.2935,-696 160.2935,-696 154.2935,-696 148.2935,-690 148.2935,-684 148.2935,-684 148.2935,-582 148.2935,-582 148.2935,-576 154.2935,-570 160.2935,-570"/>
<text text-anchor="middle" x="183.2935" y="-683.2" font-family="Times,serif" font-size="11.00" fill="#c0c0c0">units</text>
</g>
<!-- \\App\\Controllers\\Errors -->
<g id="node1" class="node">
<title>\\App\\Controllers\\Errors</title>
<polygon fill="none" stroke="#000000" points="368.2935,-776 314.2935,-776 314.2935,-740 368.2935,-740 368.2935,-776"/>
<text text-anchor="middle" x="341.2935" y="-755.2" font-family="Courier,monospace" font-size="11.00" fill="#000000">Errors</text>
</g>
<!-- \\Core\\Controller -->
<g id="node24" class="node">
<title>\\Core\\Controller</title>
<polygon fill="none" stroke="#000000" points="221.7935,-446 144.7935,-446 144.7935,-410 221.7935,-410 221.7935,-446"/>
<text text-anchor="middle" x="183.2935" y="-425.2" font-family="Courier,monospace" font-size="11.00" fill="#000000">Controller</text>
</g>
<!-- \\App\\Controllers\\Errors&#45;&gt;\\Core\\Controller -->
<g id="edge1" class="edge">
<title>\\App\\Controllers\\Errors&#45;&gt;\\Core\\Controller</title>
<path fill="none" stroke="#000000" d="M314.0168,-753.769C299.8657,-750.1312 283.5439,-743.4032 273.7935,-731 197.2108,-633.5814 305.5881,-556.3528 234.2935,-455 232.9588,-453.1025 231.4483,-451.3274 229.8046,-449.6681"/>
<polygon fill="none" stroke="#000000" points="231.8153,-446.7891 221.8784,-443.1135 227.3543,-452.1835 231.8153,-446.7891"/>
</g>
<!-- \\App\\Controllers\\Home -->
<g id="node2" class="node">
<title>\\App\\Controllers\\Home</title>
<polygon fill="none" stroke="#000000" points="368.2935,-722 314.2935,-722 314.2935,-686 368.2935,-686 368.2935,-722"/>
<text text-anchor="middle" x="341.2935" y="-701.2" font-family="Courier,monospace" font-size="11.00" fill="#000000">Home</text>
</g>
<!-- \\App\\Controllers\\Home&#45;&gt;\\Core\\Controller -->
<g id="edge2" class="edge">
<title>\\App\\Controllers\\Home&#45;&gt;\\Core\\Controller</title>
<path fill="none" stroke="#000000" d="M314.1327,-698.3782C300.0167,-694.0574 283.6914,-686.6093 273.7935,-674 212.7244,-596.202 292.6559,-534.8487 234.2935,-455 232.9486,-453.1599 231.44,-451.4337 229.8073,-449.8155"/>
<polygon fill="none" stroke="#000000" points="231.9301,-447.03 221.978,-443.3957 227.4915,-452.4429 231.9301,-447.03"/>
</g>
<!-- \\App\\Models\\TwigGlobals -->
<g id="node3" class="node">
<title>\\App\\Models\\TwigGlobals</title>
<polygon fill="none" stroke="#000000" points="382.7935,-642 299.7935,-642 299.7935,-606 382.7935,-606 382.7935,-642"/>
<text text-anchor="middle" x="341.2935" y="-621.2" font-family="Courier,monospace" font-size="11.00" fill="#000000">TwigGlobals</text>
</g>
<!-- \\Core\\Model -->
<g id="node18" class="node">
<title>\\Core\\Model</title>
<polygon fill="none" stroke="#000000" points="221.7935,-122 144.7935,-122 144.7935,-86 221.7935,-86 221.7935,-122"/>
<text text-anchor="start" x="152.7935" y="-107.2" font-family="Courier,monospace" font-size="11.00" fill="#000000">«abstract»</text>
<text text-anchor="start" x="167.7935" y="-95.2" font-family="Courier,monospace" font-size="11.00" fill="#000000">Model</text>
</g>
<!-- \\App\\Models\\TwigGlobals&#45;&gt;\\Core\\Model -->
<g id="edge3" class="edge">
<title>\\App\\Models\\TwigGlobals&#45;&gt;\\Core\\Model</title>
<path fill="none" stroke="#000000" d="M299.7227,-615.4935C289.7646,-611.4945 280.1782,-605.6216 273.7935,-597 211.9436,-513.4812 291.6151,-217.6893 234.2935,-131 232.9915,-129.0309 231.4972,-127.1956 229.8569,-125.4861"/>
<polygon fill="none" stroke="#000000" points="231.7803,-122.5305 221.8746,-118.7719 227.2744,-127.8874 231.7803,-122.5305"/>
</g>
<!-- \\App\\Models\\TwigFunctions -->
<g id="node4" class="node">
<title>\\App\\Models\\TwigFunctions</title>
<polygon fill="none" stroke="#000000" points="388.7935,-588 293.7935,-588 293.7935,-552 388.7935,-552 388.7935,-588"/>
<text text-anchor="middle" x="341.2935" y="-567.2" font-family="Courier,monospace" font-size="11.00" fill="#000000">TwigFunctions</text>
</g>
<!-- \\App\\Models\\TwigFunctions&#45;&gt;\\Core\\Model -->
<g id="edge4" class="edge">
<title>\\App\\Models\\TwigFunctions&#45;&gt;\\Core\\Model</title>
<path fill="none" stroke="#000000" d="M322.0207,-551.8519C306.1824,-535.6795 284.6486,-510.525 273.7935,-484 214.0011,-337.8933 323.1282,-261.5018 234.2935,-131 232.9881,-129.0823 231.5016,-127.2905 229.8773,-125.6177"/>
<polygon fill="none" stroke="#000000" points="231.9215,-122.7642 222.0092,-119.023 227.4249,-128.1291 231.9215,-122.7642"/>
</g>
<!-- \\App\\Config\\tests\\units\\Locations -->
<g id="node5" class="node">
<title>\\App\\Config\\tests\\units\\Locations</title>
<polygon fill="none" stroke="#000000" points="376.7935,-452 305.7935,-452 305.7935,-416 376.7935,-416 376.7935,-452"/>
<text text-anchor="middle" x="341.2935" y="-431.2" font-family="Courier,monospace" font-size="11.00" fill="#000000">Locations</text>
</g>
<!-- \\atoum -->
<g id="node25" class="node">
<title>\\atoum</title>
<ellipse fill="none" stroke="#000000" cx="36.3968" cy="-596" rx="36.2938" ry="18"/>
<text text-anchor="middle" x="36.3968" y="-592.3" font-family="Times,serif" font-size="14.00" fill="#c0c0c0">\atoum</text>
</g>
<!-- \\App\\Config\\tests\\units\\Locations&#45;&gt;\\atoum -->
<g id="edge5" class="edge">
<title>\\App\\Config\\tests\\units\\Locations&#45;&gt;\\atoum</title>
<path fill="none" stroke="#000000" d="M305.5543,-427.4171C293.6936,-423.4524 281.5506,-417.1159 273.7935,-407 176.2855,-279.8408 342.5204,-39.9973 183.2935,-58"/>
</g>
<!-- \\App\\Config\\tests\\units\\Errors -->
<g id="node6" class="node">
<title>\\App\\Config\\tests\\units\\Errors</title>
<polygon fill="none" stroke="#000000" points="368.2935,-398 314.2935,-398 314.2935,-362 368.2935,-362 368.2935,-398"/>
<text text-anchor="middle" x="341.2935" y="-377.2" font-family="Courier,monospace" font-size="11.00" fill="#000000">Errors</text>
</g>
<!-- \\App\\Config\\tests\\units\\Errors&#45;&gt;\\atoum -->
<g id="edge6" class="edge">
<title>\\App\\Config\\tests\\units\\Errors&#45;&gt;\\atoum</title>
<path fill="none" stroke="#000000" d="M314.0095,-375.7748C299.8561,-372.1387 283.5346,-365.4105 273.7935,-353 189.1185,-245.1201 319.5674,-42.5925 183.2935,-58"/>
</g>
<!-- \\App\\Config\\tests\\units\\Sessions -->
<g id="node7" class="node">
<title>\\App\\Config\\tests\\units\\Sessions</title>
<polygon fill="none" stroke="#000000" points="373.7935,-344 308.7935,-344 308.7935,-308 373.7935,-308 373.7935,-344"/>
<text text-anchor="middle" x="341.2935" y="-323.2" font-family="Courier,monospace" font-size="11.00" fill="#000000">Sessions</text>
</g>
<!-- \\App\\Config\\tests\\units\\Sessions&#45;&gt;\\atoum -->
<g id="edge7" class="edge">
<title>\\App\\Config\\tests\\units\\Sessions&#45;&gt;\\atoum</title>
<path fill="none" stroke="#000000" d="M308.6626,-320.0804C295.9902,-316.1598 282.4659,-309.6797 273.7935,-299 209.7919,-220.1838 301.2625,-150.3109 234.2935,-74 218.624,-56.1447 206.8991,-55.3311 183.2935,-58"/>
</g>
<!-- \\App\\Config\\tests\\units\\Database -->
<g id="node8" class="node">
<title>\\App\\Config\\tests\\units\\Database</title>
<polygon fill="none" stroke="#000000" points="373.7935,-290 308.7935,-290 308.7935,-254 373.7935,-254 373.7935,-290"/>
<text text-anchor="middle" x="341.2935" y="-269.2" font-family="Courier,monospace" font-size="11.00" fill="#000000">Database</text>
</g>
<!-- \\App\\Config\\tests\\units\\Database&#45;&gt;\\atoum -->
<g id="edge8" class="edge">
<title>\\App\\Config\\tests\\units\\Database&#45;&gt;\\atoum</title>
<path fill="none" stroke="#000000" d="M308.6804,-268.3151C296.1654,-265.2998 282.7521,-259.8458 273.7935,-250 219.8409,-190.7039 288.5735,-132.9966 234.2935,-74 218.2089,-56.5177 206.8991,-55.3311 183.2935,-58"/>
<path fill="none" stroke="#000000" d="M183.2935,-58C156.2962,-61.0524 142.5411,-53.8705 124.2935,-74 57.5065,-147.6751 40.8238,-469.8178 37.2612,-567.6943"/>
<polygon fill="none" stroke="#000000" points="33.7531,-567.8693 36.9056,-577.9843 40.749,-568.1111 33.7531,-567.8693"/>
</g>
<!-- \\App\\Config\\Locations -->
<g id="node9" class="node">
<title>\\App\\Config\\Locations</title>
<polygon fill="none" stroke="#000000" points="376.7935,-230 305.7935,-230 305.7935,-194 376.7935,-194 376.7935,-230"/>
<text text-anchor="middle" x="341.2935" y="-209.2" font-family="Courier,monospace" font-size="11.00" fill="#000000">Locations</text>
</g>
<!-- \\App\\Config\\Errors -->
<g id="node10" class="node">
<title>\\App\\Config\\Errors</title>
<polygon fill="none" stroke="#000000" points="368.2935,-176 314.2935,-176 314.2935,-140 368.2935,-140 368.2935,-176"/>
<text text-anchor="middle" x="341.2935" y="-155.2" font-family="Courier,monospace" font-size="11.00" fill="#000000">Errors</text>
</g>
<!-- \\App\\Config\\Sessions -->
<g id="node11" class="node">
<title>\\App\\Config\\Sessions</title>
<polygon fill="none" stroke="#000000" points="373.7935,-122 308.7935,-122 308.7935,-86 373.7935,-86 373.7935,-122"/>
<text text-anchor="middle" x="341.2935" y="-101.2" font-family="Courier,monospace" font-size="11.00" fill="#000000">Sessions</text>
</g>
<!-- \\App\\Config\\Database -->
<g id="node12" class="node">
<title>\\App\\Config\\Database</title>
<polygon fill="none" stroke="#000000" points="373.7935,-68 308.7935,-68 308.7935,-32 373.7935,-32 373.7935,-68"/>
<text text-anchor="middle" x="341.2935" y="-47.2" font-family="Courier,monospace" font-size="11.00" fill="#000000">Database</text>
</g>
<!-- \\Core\\Helpers\\Arrays -->
<g id="node13" class="node">
<title>\\Core\\Helpers\\Arrays</title>
<polygon fill="none" stroke="#000000" points="210.2935,-776 156.2935,-776 156.2935,-740 210.2935,-740 210.2935,-776"/>
<text text-anchor="middle" x="183.2935" y="-755.2" font-family="Courier,monospace" font-size="11.00" fill="#000000">Arrays</text>
</g>
<!-- \\Core\\tests\\units\\Arrays -->
<g id="node14" class="node">
<title>\\Core\\tests\\units\\Arrays</title>
<polygon fill="none" stroke="#000000" points="210.2935,-668 156.2935,-668 156.2935,-632 210.2935,-632 210.2935,-668"/>
<text text-anchor="middle" x="183.2935" y="-647.2" font-family="Courier,monospace" font-size="11.00" fill="#000000">Arrays</text>
</g>
<!-- \\Core\\tests\\units\\Arrays&#45;&gt;\\atoum -->
<g id="edge9" class="edge">
<title>\\Core\\tests\\units\\Arrays&#45;&gt;\\atoum</title>
<path fill="none" stroke="#000000" d="M156.0077,-639.9696C133.3739,-631.6493 100.9048,-619.7135 75.5056,-610.3766"/>
<polygon fill="none" stroke="#000000" points="76.3977,-606.9756 65.8042,-606.8103 73.9825,-613.5458 76.3977,-606.9756"/>
</g>
<!-- \\Core\\tests\\units\\Files -->
<g id="node15" class="node">
<title>\\Core\\tests\\units\\Files</title>
<polygon fill="none" stroke="#000000" points="210.2935,-614 156.2935,-614 156.2935,-578 210.2935,-578 210.2935,-614"/>
<text text-anchor="middle" x="183.2935" y="-593.2" font-family="Courier,monospace" font-size="11.00" fill="#000000">Files</text>
</g>
<!-- \\Core\\tests\\units\\Files&#45;&gt;\\atoum -->
<g id="edge10" class="edge">
<title>\\Core\\tests\\units\\Files&#45;&gt;\\atoum</title>
<path fill="none" stroke="#000000" d="M156.0077,-596C135.5344,-596 107.0138,-596 82.9576,-596"/>
<polygon fill="none" stroke="#000000" points="82.9576,-592.5001 72.9576,-596 82.9576,-599.5001 82.9576,-592.5001"/>
</g>
<!-- \\Core\\Arrays -->
<g id="node16" class="node">
<title>\\Core\\Arrays</title>
<polygon fill="none" stroke="#000000" points="210.2935,-554 156.2935,-554 156.2935,-518 210.2935,-518 210.2935,-554"/>
<text text-anchor="middle" x="183.2935" y="-533.2" font-family="Courier,monospace" font-size="11.00" fill="#000000">Arrays</text>
</g>
<!-- \\Core\\View -->
<g id="node17" class="node">
<title>\\Core\\View</title>
<polygon fill="none" stroke="#000000" points="210.2935,-500 156.2935,-500 156.2935,-464 210.2935,-464 210.2935,-500"/>
<text text-anchor="middle" x="183.2935" y="-479.2" font-family="Courier,monospace" font-size="11.00" fill="#000000">View</text>
</g>
<!-- \\Core\\Sanitize -->
<g id="node19" class="node">
<title>\\Core\\Sanitize</title>
<polygon fill="none" stroke="#000000" points="215.7935,-392 150.7935,-392 150.7935,-356 215.7935,-356 215.7935,-392"/>
<text text-anchor="middle" x="183.2935" y="-371.2" font-family="Courier,monospace" font-size="11.00" fill="#000000">Sanitize</text>
</g>
<!-- \\Core\\Session -->
<g id="node20" class="node">
<title>\\Core\\Session</title>
<polygon fill="none" stroke="#000000" points="212.7935,-338 153.7935,-338 153.7935,-302 212.7935,-302 212.7935,-338"/>
<text text-anchor="middle" x="183.2935" y="-317.2" font-family="Courier,monospace" font-size="11.00" fill="#000000">Session</text>
</g>
<!-- \\Core\\Files -->
<g id="node21" class="node">
<title>\\Core\\Files</title>
<polygon fill="none" stroke="#000000" points="210.2935,-284 156.2935,-284 156.2935,-248 210.2935,-248 210.2935,-284"/>
<text text-anchor="middle" x="183.2935" y="-263.2" font-family="Courier,monospace" font-size="11.00" fill="#000000">Files</text>
</g>
<!-- \\Core\\Router -->
<g id="node22" class="node">
<title>\\Core\\Router</title>
<polygon fill="none" stroke="#000000" points="210.2935,-230 156.2935,-230 156.2935,-194 210.2935,-194 210.2935,-230"/>
<text text-anchor="middle" x="183.2935" y="-209.2" font-family="Courier,monospace" font-size="11.00" fill="#000000">Router</text>
</g>
<!-- \\Core\\Error -->
<g id="node23" class="node">
<title>\\Core\\Error</title>
<polygon fill="none" stroke="#000000" points="210.2935,-176 156.2935,-176 156.2935,-140 210.2935,-140 210.2935,-176"/>
<text text-anchor="middle" x="183.2935" y="-155.2" font-family="Courier,monospace" font-size="11.00" fill="#000000">Error</text>
</g>
</g>
</svg>
