<?xml version="1.0" encoding="UTF-8" standalone="no"?>
<!DOCTYPE svg PUBLIC "-//W3C//DTD SVG 1.1//EN"
 "http://www.w3.org/Graphics/SVG/1.1/DTD/svg11.dtd">
<!-- Generated by graphviz version 2.40.1 (20161225.0304)
 -->
<!-- Title: G Pages: 1 -->
<svg width="460pt" height="928pt"
 viewBox="0.00 0.00 460.29 928.10" xmlns="http://www.w3.org/2000/svg" xmlns:xlink="http://www.w3.org/1999/xlink">
<g id="graph0" class="graph" transform="scale(1 1) rotate(0) translate(4 924.0963)">
<title>G</title>
<polygon fill="#ffffff" stroke="transparent" points="-4,4 -4,-924.0963 456.2924,-924.0963 456.2924,4 -4,4"/>
<g id="clust1" class="cluster">
<title>cluster_Global</title>
<path fill="none" stroke="#c0c0c0" d="M147.7924,-14.0963C147.7924,-14.0963 432.2924,-14.0963 432.2924,-14.0963 438.2924,-14.0963 444.2924,-20.0963 444.2924,-26.0963 444.2924,-26.0963 444.2924,-900.0963 444.2924,-900.0963 444.2924,-906.0963 438.2924,-912.0963 432.2924,-912.0963 432.2924,-912.0963 147.7924,-912.0963 147.7924,-912.0963 141.7924,-912.0963 135.7924,-906.0963 135.7924,-900.0963 135.7924,-900.0963 135.7924,-26.0963 135.7924,-26.0963 135.7924,-20.0963 141.7924,-14.0963 147.7924,-14.0963"/>
<text text-anchor="middle" x="290.0424" y="-899.2963" font-family="Times,serif" font-size="11.00" fill="#c0c0c0">Global</text>
</g>
<g id="clust2" class="cluster">
<title>cluster_\App</title>
<path fill="none" stroke="#c0c0c0" d="M307.2924,-22.0963C307.2924,-22.0963 424.2924,-22.0963 424.2924,-22.0963 430.2924,-22.0963 436.2924,-28.0963 436.2924,-34.0963 436.2924,-34.0963 436.2924,-826.0963 436.2924,-826.0963 436.2924,-832.0963 430.2924,-838.0963 424.2924,-838.0963 424.2924,-838.0963 307.2924,-838.0963 307.2924,-838.0963 301.2924,-838.0963 295.2924,-832.0963 295.2924,-826.0963 295.2924,-826.0963 295.2924,-34.0963 295.2924,-34.0963 295.2924,-28.0963 301.2924,-22.0963 307.2924,-22.0963"/>
<text text-anchor="middle" x="365.7924" y="-825.2963" font-family="Times,serif" font-size="11.00" fill="#c0c0c0">App</text>
</g>
<g id="clust3" class="cluster">
<title>cluster_\App\Controllers</title>
<path fill="none" stroke="#c0c0c0" d="M337.2924,-684.0963C337.2924,-684.0963 394.2924,-684.0963 394.2924,-684.0963 400.2924,-684.0963 406.2924,-690.0963 406.2924,-696.0963 406.2924,-696.0963 406.2924,-798.0963 406.2924,-798.0963 406.2924,-804.0963 400.2924,-810.0963 394.2924,-810.0963 394.2924,-810.0963 337.2924,-810.0963 337.2924,-810.0963 331.2924,-810.0963 325.2924,-804.0963 325.2924,-798.0963 325.2924,-798.0963 325.2924,-696.0963 325.2924,-696.0963 325.2924,-690.0963 331.2924,-684.0963 337.2924,-684.0963"/>
<text text-anchor="middle" x="365.7924" y="-797.2963" font-family="Times,serif" font-size="11.00" fill="#c0c0c0">Controllers</text>
</g>
<g id="clust4" class="cluster">
<title>cluster_\App\Models</title>
<path fill="none" stroke="#c0c0c0" d="M317.7924,-550.0963C317.7924,-550.0963 413.7924,-550.0963 413.7924,-550.0963 419.7924,-550.0963 425.7924,-556.0963 425.7924,-562.0963 425.7924,-562.0963 425.7924,-664.0963 425.7924,-664.0963 425.7924,-670.0963 419.7924,-676.0963 413.7924,-676.0963 413.7924,-676.0963 317.7924,-676.0963 317.7924,-676.0963 311.7924,-676.0963 305.7924,-670.0963 305.7924,-664.0963 305.7924,-664.0963 305.7924,-562.0963 305.7924,-562.0963 305.7924,-556.0963 311.7924,-550.0963 317.7924,-550.0963"/>
<text text-anchor="middle" x="365.7924" y="-663.2963" font-family="Times,serif" font-size="11.00" fill="#c0c0c0">Models</text>
</g>
<g id="clust5" class="cluster">
<title>cluster_\App\Config</title>
<path fill="none" stroke="#c0c0c0" d="M315.2924,-30.0963C315.2924,-30.0963 416.2924,-30.0963 416.2924,-30.0963 422.2924,-30.0963 428.2924,-36.0963 428.2924,-42.0963 428.2924,-42.0963 428.2924,-530.0963 428.2924,-530.0963 428.2924,-536.0963 422.2924,-542.0963 416.2924,-542.0963 416.2924,-542.0963 315.2924,-542.0963 315.2924,-542.0963 309.2924,-542.0963 303.2924,-536.0963 303.2924,-530.0963 303.2924,-530.0963 303.2924,-42.0963 303.2924,-42.0963 303.2924,-36.0963 309.2924,-30.0963 315.2924,-30.0963"/>
<text text-anchor="middle" x="365.7924" y="-529.2963" font-family="Times,serif" font-size="11.00" fill="#c0c0c0">Config</text>
</g>
<g id="clust6" class="cluster">
<title>cluster_\App\Config\tests</title>
<path fill="none" stroke="#c0c0c0" d="M323.2924,-244.0963C323.2924,-244.0963 408.2924,-244.0963 408.2924,-244.0963 414.2924,-244.0963 420.2924,-250.0963 420.2924,-256.0963 420.2924,-256.0963 420.2924,-502.0963 420.2924,-502.0963 420.2924,-508.0963 414.2924,-514.0963 408.2924,-514.0963 408.2924,-514.0963 323.2924,-514.0963 323.2924,-514.0963 317.2924,-514.0963 311.2924,-508.0963 311.2924,-502.0963 311.2924,-502.0963 311.2924,-256.0963 311.2924,-256.0963 311.2924,-250.0963 317.2924,-244.0963 323.2924,-244.0963"/>
<text text-anchor="middle" x="365.7924" y="-501.2963" font-family="Times,serif" font-size="11.00" fill="#c0c0c0">tests</text>
</g>
<g id="clust7" class="cluster">
<title>cluster_\App\Config\tests\units</title>
<path fill="none" stroke="#c0c0c0" d="M331.2924,-252.0963C331.2924,-252.0963 400.2924,-252.0963 400.2924,-252.0963 406.2924,-252.0963 412.2924,-258.0963 412.2924,-264.0963 412.2924,-264.0963 412.2924,-474.0963 412.2924,-474.0963 412.2924,-480.0963 406.2924,-486.0963 400.2924,-486.0963 400.2924,-486.0963 331.2924,-486.0963 331.2924,-486.0963 325.2924,-486.0963 319.2924,-480.0963 319.2924,-474.0963 319.2924,-474.0963 319.2924,-264.0963 319.2924,-264.0963 319.2924,-258.0963 325.2924,-252.0963 331.2924,-252.0963"/>
<text text-anchor="middle" x="365.7924" y="-473.2963" font-family="Times,serif" font-size="11.00" fill="#c0c0c0">units</text>
</g>
<g id="clust8" class="cluster">
<title>cluster_\Core</title>
<path fill="none" stroke="#c0c0c0" d="M155.7924,-22.0963C155.7924,-22.0963 243.7924,-22.0963 243.7924,-22.0963 249.7924,-22.0963 255.7924,-28.0963 255.7924,-34.0963 255.7924,-34.0963 255.7924,-872.0963 255.7924,-872.0963 255.7924,-878.0963 249.7924,-884.0963 243.7924,-884.0963 243.7924,-884.0963 155.7924,-884.0963 155.7924,-884.0963 149.7924,-884.0963 143.7924,-878.0963 143.7924,-872.0963 143.7924,-872.0963 143.7924,-34.0963 143.7924,-34.0963 143.7924,-28.0963 149.7924,-22.0963 155.7924,-22.0963"/>
<text text-anchor="middle" x="199.7924" y="-871.2963" font-family="Times,serif" font-size="11.00" fill="#c0c0c0">Core</text>
</g>
<g id="clust9" class="cluster">
<title>cluster_\Core\Helpers</title>
<path fill="none" stroke="#c0c0c0" d="M175.2924,-784.0963C175.2924,-784.0963 224.2924,-784.0963 224.2924,-784.0963 230.2924,-784.0963 236.2924,-790.0963 236.2924,-796.0963 236.2924,-796.0963 236.2924,-844.0963 236.2924,-844.0963 236.2924,-850.0963 230.2924,-856.0963 224.2924,-856.0963 224.2924,-856.0963 175.2924,-856.0963 175.2924,-856.0963 169.2924,-856.0963 163.2924,-850.0963 163.2924,-844.0963 163.2924,-844.0963 163.2924,-796.0963 163.2924,-796.0963 163.2924,-790.0963 169.2924,-784.0963 175.2924,-784.0963"/>
<text text-anchor="middle" x="199.7924" y="-843.2963" font-family="Times,serif" font-size="11.00" fill="#c0c0c0">Helpers</text>
</g>
<g id="clust10" class="cluster">
<title>cluster_\Core\tests</title>
<path fill="none" stroke="#c0c0c0" d="M163.7924,-560.0963C163.7924,-560.0963 235.7924,-560.0963 235.7924,-560.0963 241.7924,-560.0963 247.7924,-566.0963 247.7924,-572.0963 247.7924,-572.0963 247.7924,-764.0963 247.7924,-764.0963 247.7924,-770.0963 241.7924,-776.0963 235.7924,-776.0963 235.7924,-776.0963 163.7924,-776.0963 163.7924,-776.0963 157.7924,-776.0963 151.7924,-770.0963 151.7924,-764.0963 151.7924,-764.0963 151.7924,-572.0963 151.7924,-572.0963 151.7924,-566.0963 157.7924,-560.0963 163.7924,-560.0963"/>
<text text-anchor="middle" x="199.7924" y="-763.2963" font-family="Times,serif" font-size="11.00" fill="#c0c0c0">tests</text>
</g>
<g id="clust11" class="cluster">
<title>cluster_\Core\tests\units</title>
<path fill="none" stroke="#c0c0c0" d="M171.7924,-568.0963C171.7924,-568.0963 227.7924,-568.0963 227.7924,-568.0963 233.7924,-568.0963 239.7924,-574.0963 239.7924,-580.0963 239.7924,-580.0963 239.7924,-736.0963 239.7924,-736.0963 239.7924,-742.0963 233.7924,-748.0963 227.7924,-748.0963 227.7924,-748.0963 171.7924,-748.0963 171.7924,-748.0963 165.7924,-748.0963 159.7924,-742.0963 159.7924,-736.0963 159.7924,-736.0963 159.7924,-580.0963 159.7924,-580.0963 159.7924,-574.0963 165.7924,-568.0963 171.7924,-568.0963"/>
<text text-anchor="middle" x="199.7924" y="-735.2963" font-family="Times,serif" font-size="11.00" fill="#c0c0c0">units</text>
</g>
<!-- \\App\\Controllers\\Home -->
<g id="node1" class="node">
<title>\\App\\Controllers\\Home</title>
<polygon fill="none" stroke="#000000" points="392.7924,-782.0963 338.7924,-782.0963 338.7924,-746.0963 392.7924,-746.0963 392.7924,-782.0963"/>
<text text-anchor="middle" x="365.7924" y="-761.2963" font-family="Courier,monospace" font-size="11.00" fill="#000000">Home</text>
</g>
<!-- \\Core\\Controller -->
<g id="node23" class="node">
<title>\\Core\\Controller</title>
<polygon fill="none" stroke="#000000" points="241.7924,-228.0963 157.7924,-228.0963 157.7924,-192.0963 241.7924,-192.0963 241.7924,-228.0963"/>
<text text-anchor="middle" x="199.7924" y="-207.2963" font-family="Courier,monospace" font-size="11.00" fill="#000000">Controller</text>
</g>
<!-- \\App\\Controllers\\Home&#45;&gt;\\Core\\Controller -->
<g id="edge1" class="edge">
<title>\\App\\Controllers\\Home&#45;&gt;\\Core\\Controller</title>
<path fill="none" stroke="#000000" d="M338.7826,-760.8304C323.5149,-757.4923 305.4942,-750.743 295.2924,-737.0963 228.5571,-647.8264 318.743,-329.0743 255.7924,-237.0963 254.1065,-234.633 252.1312,-232.3868 249.9489,-230.3396"/>
<polygon fill="none" stroke="#000000" points="251.9131,-227.4349 241.8504,-224.1191 247.649,-232.9864 251.9131,-227.4349"/>
</g>
<!-- \\App\\Controllers\\Errors -->
<g id="node2" class="node">
<title>\\App\\Controllers\\Errors</title>
<polygon fill="none" stroke="#000000" points="394.2924,-728.0963 337.2924,-728.0963 337.2924,-692.0963 394.2924,-692.0963 394.2924,-728.0963"/>
<text text-anchor="middle" x="365.7924" y="-707.2963" font-family="Courier,monospace" font-size="11.00" fill="#000000">Errors</text>
</g>
<!-- \\App\\Controllers\\Errors&#45;&gt;\\Core\\Controller -->
<g id="edge2" class="edge">
<title>\\App\\Controllers\\Errors&#45;&gt;\\Core\\Controller</title>
<path fill="none" stroke="#000000" d="M336.9849,-705.1333C322.1084,-701.0119 305.0707,-693.5441 295.2924,-680.0963 179.0435,-520.2225 368.2575,-399.6541 255.7924,-237.0963 254.0941,-234.6415 252.1091,-232.402 249.9193,-230.3599"/>
<polygon fill="none" stroke="#000000" points="251.8725,-227.4475 241.8034,-224.1515 247.6194,-233.0073 251.8725,-227.4475"/>
</g>
<!-- \\App\\Models\\TwigGlobals -->
<g id="node3" class="node">
<title>\\App\\Models\\TwigGlobals</title>
<polygon fill="none" stroke="#000000" points="411.2924,-648.0963 320.2924,-648.0963 320.2924,-612.0963 411.2924,-612.0963 411.2924,-648.0963"/>
<text text-anchor="middle" x="365.7924" y="-627.2963" font-family="Courier,monospace" font-size="11.00" fill="#000000">TwigGlobals</text>
</g>
<!-- \\Core\\Model -->
<g id="node25" class="node">
<title>\\Core\\Model</title>
<polygon fill="none" stroke="#000000" points="241.7924,-120.0963 157.7924,-120.0963 157.7924,-84.0963 241.7924,-84.0963 241.7924,-120.0963"/>
<text text-anchor="start" x="165.7924" y="-105.2963" font-family="Courier,monospace" font-size="11.00" fill="#000000">«abstract»</text>
<text text-anchor="start" x="182.7924" y="-93.2963" font-family="Courier,monospace" font-size="11.00" fill="#000000">Model</text>
</g>
<!-- \\App\\Models\\TwigGlobals&#45;&gt;\\Core\\Model -->
<g id="edge3" class="edge">
<title>\\App\\Models\\TwigGlobals&#45;&gt;\\Core\\Model</title>
<path fill="none" stroke="#000000" d="M320.2065,-621.0971C310.6036,-617.1167 301.5098,-611.3759 295.2924,-603.0963 231.8231,-518.5753 315.6781,-216.1932 255.7924,-129.0963 254.1012,-126.6366 252.1218,-124.3933 249.9362,-122.3482"/>
<polygon fill="none" stroke="#000000" points="251.8958,-119.4403 241.8304,-116.1329 247.6364,-124.9953 251.8958,-119.4403"/>
</g>
<!-- \\App\\Models\\TwigFunctions -->
<g id="node4" class="node">
<title>\\App\\Models\\TwigFunctions</title>
<polygon fill="none" stroke="#000000" points="417.7924,-594.0963 313.7924,-594.0963 313.7924,-558.0963 417.7924,-558.0963 417.7924,-594.0963"/>
<text text-anchor="middle" x="365.7924" y="-573.2963" font-family="Courier,monospace" font-size="11.00" fill="#000000">TwigFunctions</text>
</g>
<!-- \\App\\Models\\TwigFunctions&#45;&gt;\\Core\\Model -->
<g id="edge4" class="edge">
<title>\\App\\Models\\TwigFunctions&#45;&gt;\\Core\\Model</title>
<path fill="none" stroke="#000000" d="M345.3114,-557.8048C328.7877,-541.7311 306.5118,-516.794 295.2924,-490.0963 232.762,-341.2993 348.949,-260.901 255.7924,-129.0963 254.0987,-126.7 252.1332,-124.5082 249.9726,-122.5044"/>
<polygon fill="none" stroke="#000000" points="252.0554,-119.6909 241.9872,-116.3922 247.8008,-125.2496 252.0554,-119.6909"/>
</g>
<!-- \\App\\Config\\tests\\units\\Database -->
<g id="node5" class="node">
<title>\\App\\Config\\tests\\units\\Database</title>
<polygon fill="none" stroke="#000000" points="401.2924,-458.0963 330.2924,-458.0963 330.2924,-422.0963 401.2924,-422.0963 401.2924,-458.0963"/>
<text text-anchor="middle" x="365.7924" y="-437.2963" font-family="Courier,monospace" font-size="11.00" fill="#000000">Database</text>
</g>
<!-- \\atoum -->
<g id="node27" class="node">
<title>\\atoum</title>
<ellipse fill="none" stroke="#000000" cx="42.8962" cy="-621.0963" rx="42.7926" ry="18"/>
<text text-anchor="middle" x="42.8962" y="-617.3963" font-family="Times,serif" font-size="14.00" fill="#c0c0c0">\atoum</text>
</g>
<!-- \\App\\Config\\tests\\units\\Database&#45;&gt;\\atoum -->
<g id="edge5" class="edge">
<title>\\App\\Config\\tests\\units\\Database&#45;&gt;\\atoum</title>
<path fill="none" stroke="#000000" d="M330.2306,-434.521C317.2629,-430.6629 303.7262,-424.1363 295.2924,-413.0963 181.4481,-264.0724 386.5062,15.4131 199.7924,-2.0963"/>
</g>
<!-- \\App\\Config\\tests\\units\\Locations -->
<g id="node6" class="node">
<title>\\App\\Config\\tests\\units\\Locations</title>
<polygon fill="none" stroke="#000000" points="404.2924,-404.0963 327.2924,-404.0963 327.2924,-368.0963 404.2924,-368.0963 404.2924,-404.0963"/>
<text text-anchor="middle" x="365.7924" y="-383.2963" font-family="Courier,monospace" font-size="11.00" fill="#000000">Locations</text>
</g>
<!-- \\App\\Config\\tests\\units\\Locations&#45;&gt;\\atoum -->
<g id="edge6" class="edge">
<title>\\App\\Config\\tests\\units\\Locations&#45;&gt;\\atoum</title>
<path fill="none" stroke="#000000" d="M327.0099,-379.4092C315.0989,-375.4467 303.089,-369.1383 295.2924,-359.0963 194.5665,-229.3622 363.3206,13.2389 199.7924,-2.0963"/>
</g>
<!-- \\App\\Config\\tests\\units\\Sessions -->
<g id="node7" class="node">
<title>\\App\\Config\\tests\\units\\Sessions</title>
<polygon fill="none" stroke="#000000" points="401.2924,-350.0963 330.2924,-350.0963 330.2924,-314.0963 401.2924,-314.0963 401.2924,-350.0963"/>
<text text-anchor="middle" x="365.7924" y="-329.2963" font-family="Courier,monospace" font-size="11.00" fill="#000000">Sessions</text>
</g>
<!-- \\App\\Config\\tests\\units\\Sessions&#45;&gt;\\atoum -->
<g id="edge7" class="edge">
<title>\\App\\Config\\tests\\units\\Sessions&#45;&gt;\\atoum</title>
<path fill="none" stroke="#000000" d="M330.0737,-326.2474C317.2455,-322.3544 303.8481,-315.8753 295.2924,-305.0963 215.2437,-204.2458 340.1728,-115.3515 255.7924,-18.0963 238.829,1.4554 225.5642,.3205 199.7924,-2.0963"/>
</g>
<!-- \\App\\Config\\tests\\units\\Errors -->
<g id="node8" class="node">
<title>\\App\\Config\\tests\\units\\Errors</title>
<polygon fill="none" stroke="#000000" points="394.2924,-296.0963 337.2924,-296.0963 337.2924,-260.0963 394.2924,-260.0963 394.2924,-296.0963"/>
<text text-anchor="middle" x="365.7924" y="-275.2963" font-family="Courier,monospace" font-size="11.00" fill="#000000">Errors</text>
</g>
<!-- \\App\\Config\\tests\\units\\Errors&#45;&gt;\\atoum -->
<g id="edge8" class="edge">
<title>\\App\\Config\\tests\\units\\Errors&#45;&gt;\\atoum</title>
<path fill="none" stroke="#000000" d="M337.2178,-276.1447C322.5996,-273.6233 305.7327,-268.0869 295.2924,-256.0963 224.8814,-175.2296 327.1759,-98.1059 255.7924,-18.0963 238.5599,1.2186 225.5642,.3205 199.7924,-2.0963"/>
<path fill="none" stroke="#000000" d="M199.7924,-2.0963C170.6006,-4.8338 155.548,3.5686 135.7924,-18.0963 57.4767,-103.9807 45.1659,-485.7707 43.2471,-593.0017"/>
<polygon fill="none" stroke="#000000" points="39.7467,-592.9996 43.0839,-603.0552 46.7458,-593.1133 39.7467,-592.9996"/>
</g>
<!-- \\App\\Config\\Database -->
<g id="node9" class="node">
<title>\\App\\Config\\Database</title>
<polygon fill="none" stroke="#000000" points="401.2924,-236.0963 330.2924,-236.0963 330.2924,-200.0963 401.2924,-200.0963 401.2924,-236.0963"/>
<text text-anchor="middle" x="365.7924" y="-215.2963" font-family="Courier,monospace" font-size="11.00" fill="#000000">Database</text>
</g>
<!-- \\App\\Config\\Locations -->
<g id="node10" class="node">
<title>\\App\\Config\\Locations</title>
<polygon fill="none" stroke="#000000" points="404.2924,-182.0963 327.2924,-182.0963 327.2924,-146.0963 404.2924,-146.0963 404.2924,-182.0963"/>
<text text-anchor="middle" x="365.7924" y="-161.2963" font-family="Courier,monospace" font-size="11.00" fill="#000000">Locations</text>
</g>
<!-- \\App\\Config\\Sessions -->
<g id="node11" class="node">
<title>\\App\\Config\\Sessions</title>
<polygon fill="none" stroke="#000000" points="401.2924,-128.0963 330.2924,-128.0963 330.2924,-92.0963 401.2924,-92.0963 401.2924,-128.0963"/>
<text text-anchor="middle" x="365.7924" y="-107.2963" font-family="Courier,monospace" font-size="11.00" fill="#000000">Sessions</text>
</g>
<!-- \\App\\Config\\Errors -->
<g id="node12" class="node">
<title>\\App\\Config\\Errors</title>
<polygon fill="none" stroke="#000000" points="394.2924,-74.0963 337.2924,-74.0963 337.2924,-38.0963 394.2924,-38.0963 394.2924,-74.0963"/>
<text text-anchor="middle" x="365.7924" y="-53.2963" font-family="Courier,monospace" font-size="11.00" fill="#000000">Errors</text>
</g>
<!-- \\Core\\Helpers\\Arrays -->
<g id="node13" class="node">
<title>\\Core\\Helpers\\Arrays</title>
<polygon fill="none" stroke="#000000" points="228.2924,-828.0963 171.2924,-828.0963 171.2924,-792.0963 228.2924,-792.0963 228.2924,-828.0963"/>
<text text-anchor="middle" x="199.7924" y="-807.2963" font-family="Courier,monospace" font-size="11.00" fill="#000000">Arrays</text>
</g>
<!-- \\Core\\tests\\units\\Strings -->
<g id="node14" class="node">
<title>\\Core\\tests\\units\\Strings</title>
<polygon fill="none" stroke="#000000" points="231.7924,-720.0963 167.7924,-720.0963 167.7924,-684.0963 231.7924,-684.0963 231.7924,-720.0963"/>
<text text-anchor="middle" x="199.7924" y="-699.2963" font-family="Courier,monospace" font-size="11.00" fill="#000000">Strings</text>
</g>
<!-- \\Core\\tests\\units\\Strings&#45;&gt;\\atoum -->
<g id="edge9" class="edge">
<title>\\Core\\tests\\units\\Strings&#45;&gt;\\atoum</title>
<path fill="none" stroke="#000000" d="M167.5275,-689.425C157.2585,-685.143 145.9353,-680.1581 135.7924,-675.0963 115.3243,-664.8818 93.1503,-652.0628 75.6009,-641.4782"/>
<polygon fill="none" stroke="#000000" points="77.2412,-638.3793 66.8788,-636.1724 73.6032,-644.3597 77.2412,-638.3793"/>
</g>
<!-- \\Core\\tests\\units\\Arrays -->
<g id="node15" class="node">
<title>\\Core\\tests\\units\\Arrays</title>
<polygon fill="none" stroke="#000000" points="228.2924,-666.0963 171.2924,-666.0963 171.2924,-630.0963 228.2924,-630.0963 228.2924,-666.0963"/>
<text text-anchor="middle" x="199.7924" y="-645.2963" font-family="Courier,monospace" font-size="11.00" fill="#000000">Arrays</text>
</g>
<!-- \\Core\\tests\\units\\Arrays&#45;&gt;\\atoum -->
<g id="edge10" class="edge">
<title>\\Core\\tests\\units\\Arrays&#45;&gt;\\atoum</title>
<path fill="none" stroke="#000000" d="M171.0152,-643.1441C149.1475,-639.3809 118.5322,-634.1124 92.7128,-629.6692"/>
<polygon fill="none" stroke="#000000" points="93.1647,-626.1956 82.7159,-627.9488 91.9775,-633.0942 93.1647,-626.1956"/>
</g>
<!-- \\Core\\tests\\units\\Files -->
<g id="node16" class="node">
<title>\\Core\\tests\\units\\Files</title>
<polygon fill="none" stroke="#000000" points="226.7924,-612.0963 172.7924,-612.0963 172.7924,-576.0963 226.7924,-576.0963 226.7924,-612.0963"/>
<text text-anchor="middle" x="199.7924" y="-591.2963" font-family="Courier,monospace" font-size="11.00" fill="#000000">Files</text>
</g>
<!-- \\Core\\tests\\units\\Files&#45;&gt;\\atoum -->
<g id="edge11" class="edge">
<title>\\Core\\tests\\units\\Files&#45;&gt;\\atoum</title>
<path fill="none" stroke="#000000" d="M172.4632,-598.7994C150.6059,-602.5607 119.3713,-607.9358 93.0461,-612.4661"/>
<polygon fill="none" stroke="#000000" points="92.1171,-609.0744 82.8556,-614.2198 93.3043,-615.973 92.1171,-609.0744"/>
</g>
<!-- \\Core\\Strings -->
<g id="node17" class="node">
<title>\\Core\\Strings</title>
<polygon fill="none" stroke="#000000" points="231.7924,-552.0963 167.7924,-552.0963 167.7924,-516.0963 231.7924,-516.0963 231.7924,-552.0963"/>
<text text-anchor="middle" x="199.7924" y="-531.2963" font-family="Courier,monospace" font-size="11.00" fill="#000000">Strings</text>
</g>
<!-- \\Core\\Session -->
<g id="node18" class="node">
<title>\\Core\\Session</title>
<polygon fill="none" stroke="#000000" points="231.7924,-498.0963 167.7924,-498.0963 167.7924,-462.0963 231.7924,-462.0963 231.7924,-498.0963"/>
<text text-anchor="middle" x="199.7924" y="-477.2963" font-family="Courier,monospace" font-size="11.00" fill="#000000">Session</text>
</g>
<!-- \\Core\\Router -->
<g id="node19" class="node">
<title>\\Core\\Router</title>
<polygon fill="none" stroke="#000000" points="228.2924,-444.0963 171.2924,-444.0963 171.2924,-408.0963 228.2924,-408.0963 228.2924,-444.0963"/>
<text text-anchor="middle" x="199.7924" y="-423.2963" font-family="Courier,monospace" font-size="11.00" fill="#000000">Router</text>
</g>
<!-- \\Core\\View -->
<g id="node20" class="node">
<title>\\Core\\View</title>
<polygon fill="none" stroke="#000000" points="226.7924,-390.0963 172.7924,-390.0963 172.7924,-354.0963 226.7924,-354.0963 226.7924,-390.0963"/>
<text text-anchor="middle" x="199.7924" y="-369.2963" font-family="Courier,monospace" font-size="11.00" fill="#000000">View</text>
</g>
<!-- \\Core\\Sanitize -->
<g id="node21" class="node">
<title>\\Core\\Sanitize</title>
<polygon fill="none" stroke="#000000" points="235.2924,-336.0963 164.2924,-336.0963 164.2924,-300.0963 235.2924,-300.0963 235.2924,-336.0963"/>
<text text-anchor="middle" x="199.7924" y="-315.2963" font-family="Courier,monospace" font-size="11.00" fill="#000000">Sanitize</text>
</g>
<!-- \\Core\\Error -->
<g id="node22" class="node">
<title>\\Core\\Error</title>
<polygon fill="none" stroke="#000000" points="226.7924,-282.0963 172.7924,-282.0963 172.7924,-246.0963 226.7924,-246.0963 226.7924,-282.0963"/>
<text text-anchor="middle" x="199.7924" y="-261.2963" font-family="Courier,monospace" font-size="11.00" fill="#000000">Error</text>
</g>
<!-- \\Core\\Arrays -->
<g id="node24" class="node">
<title>\\Core\\Arrays</title>
<polygon fill="none" stroke="#000000" points="228.2924,-174.0963 171.2924,-174.0963 171.2924,-138.0963 228.2924,-138.0963 228.2924,-174.0963"/>
<text text-anchor="middle" x="199.7924" y="-153.2963" font-family="Courier,monospace" font-size="11.00" fill="#000000">Arrays</text>
</g>
<!-- \\Core\\Files -->
<g id="node26" class="node">
<title>\\Core\\Files</title>
<polygon fill="none" stroke="#000000" points="226.7924,-66.0963 172.7924,-66.0963 172.7924,-30.0963 226.7924,-30.0963 226.7924,-66.0963"/>
<text text-anchor="middle" x="199.7924" y="-45.2963" font-family="Courier,monospace" font-size="11.00" fill="#000000">Files</text>
</g>
</g>
</svg>
