<?xml version="1.0" encoding="UTF-8" standalone="no"?>
<!DOCTYPE svg PUBLIC "-//W3C//DTD SVG 1.1//EN"
 "http://www.w3.org/Graphics/SVG/1.1/DTD/svg11.dtd">
<!-- Generated by graphviz version 2.40.1 (20161225.0304)
 -->
<!-- Title: G Pages: 1 -->
<svg width="460pt" height="876pt"
 viewBox="0.00 0.00 460.29 876.00" xmlns="http://www.w3.org/2000/svg" xmlns:xlink="http://www.w3.org/1999/xlink">
<g id="graph0" class="graph" transform="scale(1 1) rotate(0) translate(4 872)">
<title>G</title>
<polygon fill="#ffffff" stroke="transparent" points="-4,4 -4,-872 456.2924,-872 456.2924,4 -4,4"/>
<g id="clust1" class="cluster">
<title>cluster_Global</title>
<path fill="none" stroke="#c0c0c0" d="M151.2924,-8C151.2924,-8 432.2924,-8 432.2924,-8 438.2924,-8 444.2924,-14 444.2924,-20 444.2924,-20 444.2924,-848 444.2924,-848 444.2924,-854 438.2924,-860 432.2924,-860 432.2924,-860 151.2924,-860 151.2924,-860 145.2924,-860 139.2924,-854 139.2924,-848 139.2924,-848 139.2924,-20 139.2924,-20 139.2924,-14 145.2924,-8 151.2924,-8"/>
<text text-anchor="middle" x="291.7924" y="-847.2" font-family="Times,serif" font-size="11.00" fill="#c0c0c0">Global</text>
</g>
<g id="clust2" class="cluster">
<title>cluster_\App</title>
<path fill="none" stroke="#c0c0c0" d="M307.2924,-16C307.2924,-16 424.2924,-16 424.2924,-16 430.2924,-16 436.2924,-22 436.2924,-28 436.2924,-28 436.2924,-820 436.2924,-820 436.2924,-826 430.2924,-832 424.2924,-832 424.2924,-832 307.2924,-832 307.2924,-832 301.2924,-832 295.2924,-826 295.2924,-820 295.2924,-820 295.2924,-28 295.2924,-28 295.2924,-22 301.2924,-16 307.2924,-16"/>
<text text-anchor="middle" x="365.7924" y="-819.2" font-family="Times,serif" font-size="11.00" fill="#c0c0c0">App</text>
</g>
<g id="clust3" class="cluster">
<title>cluster_\App\Controllers</title>
<path fill="none" stroke="#c0c0c0" d="M337.2924,-678C337.2924,-678 394.2924,-678 394.2924,-678 400.2924,-678 406.2924,-684 406.2924,-690 406.2924,-690 406.2924,-792 406.2924,-792 406.2924,-798 400.2924,-804 394.2924,-804 394.2924,-804 337.2924,-804 337.2924,-804 331.2924,-804 325.2924,-798 325.2924,-792 325.2924,-792 325.2924,-690 325.2924,-690 325.2924,-684 331.2924,-678 337.2924,-678"/>
<text text-anchor="middle" x="365.7924" y="-791.2" font-family="Times,serif" font-size="11.00" fill="#c0c0c0">Controllers</text>
</g>
<g id="clust4" class="cluster">
<title>cluster_\App\Models</title>
<path fill="none" stroke="#c0c0c0" d="M317.7924,-544C317.7924,-544 413.7924,-544 413.7924,-544 419.7924,-544 425.7924,-550 425.7924,-556 425.7924,-556 425.7924,-658 425.7924,-658 425.7924,-664 419.7924,-670 413.7924,-670 413.7924,-670 317.7924,-670 317.7924,-670 311.7924,-670 305.7924,-664 305.7924,-658 305.7924,-658 305.7924,-556 305.7924,-556 305.7924,-550 311.7924,-544 317.7924,-544"/>
<text text-anchor="middle" x="365.7924" y="-657.2" font-family="Times,serif" font-size="11.00" fill="#c0c0c0">Models</text>
</g>
<g id="clust5" class="cluster">
<title>cluster_\App\Config</title>
<path fill="none" stroke="#c0c0c0" d="M315.2924,-24C315.2924,-24 416.2924,-24 416.2924,-24 422.2924,-24 428.2924,-30 428.2924,-36 428.2924,-36 428.2924,-524 428.2924,-524 428.2924,-530 422.2924,-536 416.2924,-536 416.2924,-536 315.2924,-536 315.2924,-536 309.2924,-536 303.2924,-530 303.2924,-524 303.2924,-524 303.2924,-36 303.2924,-36 303.2924,-30 309.2924,-24 315.2924,-24"/>
<text text-anchor="middle" x="365.7924" y="-523.2" font-family="Times,serif" font-size="11.00" fill="#c0c0c0">Config</text>
</g>
<g id="clust6" class="cluster">
<title>cluster_\App\Config\tests</title>
<path fill="none" stroke="#c0c0c0" d="M323.2924,-238C323.2924,-238 408.2924,-238 408.2924,-238 414.2924,-238 420.2924,-244 420.2924,-250 420.2924,-250 420.2924,-496 420.2924,-496 420.2924,-502 414.2924,-508 408.2924,-508 408.2924,-508 323.2924,-508 323.2924,-508 317.2924,-508 311.2924,-502 311.2924,-496 311.2924,-496 311.2924,-250 311.2924,-250 311.2924,-244 317.2924,-238 323.2924,-238"/>
<text text-anchor="middle" x="365.7924" y="-495.2" font-family="Times,serif" font-size="11.00" fill="#c0c0c0">tests</text>
</g>
<g id="clust7" class="cluster">
<title>cluster_\App\Config\tests\units</title>
<path fill="none" stroke="#c0c0c0" d="M331.2924,-246C331.2924,-246 400.2924,-246 400.2924,-246 406.2924,-246 412.2924,-252 412.2924,-258 412.2924,-258 412.2924,-468 412.2924,-468 412.2924,-474 406.2924,-480 400.2924,-480 400.2924,-480 331.2924,-480 331.2924,-480 325.2924,-480 319.2924,-474 319.2924,-468 319.2924,-468 319.2924,-258 319.2924,-258 319.2924,-252 325.2924,-246 331.2924,-246"/>
<text text-anchor="middle" x="365.7924" y="-467.2" font-family="Times,serif" font-size="11.00" fill="#c0c0c0">units</text>
</g>
<g id="clust8" class="cluster">
<title>cluster_\Core</title>
<path fill="none" stroke="#c0c0c0" d="M159.2924,-78C159.2924,-78 240.2924,-78 240.2924,-78 246.2924,-78 252.2924,-84 252.2924,-90 252.2924,-90 252.2924,-820 252.2924,-820 252.2924,-826 246.2924,-832 240.2924,-832 240.2924,-832 159.2924,-832 159.2924,-832 153.2924,-832 147.2924,-826 147.2924,-820 147.2924,-820 147.2924,-90 147.2924,-90 147.2924,-84 153.2924,-78 159.2924,-78"/>
<text text-anchor="middle" x="199.7924" y="-819.2" font-family="Times,serif" font-size="11.00" fill="#c0c0c0">Core</text>
</g>
<g id="clust9" class="cluster">
<title>cluster_\Core\Helpers</title>
<path fill="none" stroke="#c0c0c0" d="M175.2924,-732C175.2924,-732 224.2924,-732 224.2924,-732 230.2924,-732 236.2924,-738 236.2924,-744 236.2924,-744 236.2924,-792 236.2924,-792 236.2924,-798 230.2924,-804 224.2924,-804 224.2924,-804 175.2924,-804 175.2924,-804 169.2924,-804 163.2924,-798 163.2924,-792 163.2924,-792 163.2924,-744 163.2924,-744 163.2924,-738 169.2924,-732 175.2924,-732"/>
<text text-anchor="middle" x="199.7924" y="-791.2" font-family="Times,serif" font-size="11.00" fill="#c0c0c0">Helpers</text>
</g>
<g id="clust10" class="cluster">
<title>cluster_\Core\tests</title>
<path fill="none" stroke="#c0c0c0" d="M167.2924,-562C167.2924,-562 232.2924,-562 232.2924,-562 238.2924,-562 244.2924,-568 244.2924,-574 244.2924,-574 244.2924,-712 244.2924,-712 244.2924,-718 238.2924,-724 232.2924,-724 232.2924,-724 167.2924,-724 167.2924,-724 161.2924,-724 155.2924,-718 155.2924,-712 155.2924,-712 155.2924,-574 155.2924,-574 155.2924,-568 161.2924,-562 167.2924,-562"/>
<text text-anchor="middle" x="199.7924" y="-711.2" font-family="Times,serif" font-size="11.00" fill="#c0c0c0">tests</text>
</g>
<g id="clust11" class="cluster">
<title>cluster_\Core\tests\units</title>
<path fill="none" stroke="#c0c0c0" d="M175.2924,-570C175.2924,-570 224.2924,-570 224.2924,-570 230.2924,-570 236.2924,-576 236.2924,-582 236.2924,-582 236.2924,-684 236.2924,-684 236.2924,-690 230.2924,-696 224.2924,-696 224.2924,-696 175.2924,-696 175.2924,-696 169.2924,-696 163.2924,-690 163.2924,-684 163.2924,-684 163.2924,-582 163.2924,-582 163.2924,-576 169.2924,-570 175.2924,-570"/>
<text text-anchor="middle" x="199.7924" y="-683.2" font-family="Times,serif" font-size="11.00" fill="#c0c0c0">units</text>
</g>
<!-- \\App\\Controllers\\Home -->
<g id="node1" class="node">
<title>\\App\\Controllers\\Home</title>
<polygon fill="none" stroke="#000000" points="392.7924,-776 338.7924,-776 338.7924,-740 392.7924,-740 392.7924,-776"/>
<text text-anchor="middle" x="365.7924" y="-755.2" font-family="Courier,monospace" font-size="11.00" fill="#000000">Home</text>
</g>
<!-- \\Core\\Controller -->
<g id="node21" class="node">
<title>\\Core\\Controller</title>
<polygon fill="none" stroke="#000000" points="241.7924,-284 157.7924,-284 157.7924,-248 241.7924,-248 241.7924,-284"/>
<text text-anchor="middle" x="199.7924" y="-263.2" font-family="Courier,monospace" font-size="11.00" fill="#000000">Controller</text>
</g>
<!-- \\App\\Controllers\\Home&#45;&gt;\\Core\\Controller -->
<g id="edge1" class="edge">
<title>\\App\\Controllers\\Home&#45;&gt;\\Core\\Controller</title>
<path fill="none" stroke="#000000" d="M338.5246,-754.5848C323.3654,-751.1956 305.5441,-744.4448 295.2924,-731 176.69,-575.4563 362.2244,-454.7878 252.2924,-293 251.4283,-291.7284 250.4853,-290.5131 249.4755,-289.3519"/>
<polygon fill="none" stroke="#000000" points="251.701,-286.6434 241.9715,-282.4494 246.962,-291.7953 251.701,-286.6434"/>
</g>
<!-- \\App\\Controllers\\Errors -->
<g id="node2" class="node">
<title>\\App\\Controllers\\Errors</title>
<polygon fill="none" stroke="#000000" points="394.2924,-722 337.2924,-722 337.2924,-686 394.2924,-686 394.2924,-722"/>
<text text-anchor="middle" x="365.7924" y="-701.2" font-family="Courier,monospace" font-size="11.00" fill="#000000">Errors</text>
</g>
<!-- \\App\\Controllers\\Errors&#45;&gt;\\Core\\Controller -->
<g id="edge2" class="edge">
<title>\\App\\Controllers\\Errors&#45;&gt;\\Core\\Controller</title>
<path fill="none" stroke="#000000" d="M337.1083,-698.9461C322.2691,-694.7973 305.2277,-687.3322 295.2924,-674 193.4665,-537.36 349.086,-433.2498 252.2924,-293 251.4191,-291.7347 250.468,-290.525 249.451,-289.3686"/>
<polygon fill="none" stroke="#000000" points="251.6589,-286.6452 241.9132,-282.4894 246.9402,-291.8157 251.6589,-286.6452"/>
</g>
<!-- \\App\\Models\\TwigGlobals -->
<g id="node3" class="node">
<title>\\App\\Models\\TwigGlobals</title>
<polygon fill="none" stroke="#000000" points="411.2924,-642 320.2924,-642 320.2924,-606 411.2924,-606 411.2924,-642"/>
<text text-anchor="middle" x="365.7924" y="-621.2" font-family="Courier,monospace" font-size="11.00" fill="#000000">TwigGlobals</text>
</g>
<!-- \\Core\\Model -->
<g id="node23" class="node">
<title>\\Core\\Model</title>
<polygon fill="none" stroke="#000000" points="241.7924,-176 157.7924,-176 157.7924,-140 241.7924,-140 241.7924,-176"/>
<text text-anchor="start" x="165.7924" y="-161.2" font-family="Courier,monospace" font-size="11.00" fill="#000000">«abstract»</text>
<text text-anchor="start" x="182.7924" y="-149.2" font-family="Courier,monospace" font-size="11.00" fill="#000000">Model</text>
</g>
<!-- \\App\\Models\\TwigGlobals&#45;&gt;\\Core\\Model -->
<g id="edge3" class="edge">
<title>\\App\\Models\\TwigGlobals&#45;&gt;\\Core\\Model</title>
<path fill="none" stroke="#000000" d="M319.9652,-614.7553C310.4919,-610.785 301.516,-605.1104 295.2924,-597 183.2127,-450.9416 356.2294,-336.9605 252.2924,-185 251.4244,-183.731 250.478,-182.5181 249.4652,-181.3589"/>
<polygon fill="none" stroke="#000000" points="251.6832,-178.6441 241.9469,-174.4662 246.9528,-183.8039 251.6832,-178.6441"/>
</g>
<!-- \\App\\Models\\TwigFunctions -->
<g id="node4" class="node">
<title>\\App\\Models\\TwigFunctions</title>
<polygon fill="none" stroke="#000000" points="417.7924,-588 313.7924,-588 313.7924,-552 417.7924,-552 417.7924,-588"/>
<text text-anchor="middle" x="365.7924" y="-567.2" font-family="Courier,monospace" font-size="11.00" fill="#000000">TwigFunctions</text>
</g>
<!-- \\App\\Models\\TwigFunctions&#45;&gt;\\Core\\Model -->
<g id="edge4" class="edge">
<title>\\App\\Models\\TwigFunctions&#45;&gt;\\Core\\Model</title>
<path fill="none" stroke="#000000" d="M345.8699,-551.9304C329.457,-535.8072 307.0398,-510.6807 295.2924,-484 241.1917,-361.1269 330.2244,-294.322 252.2924,-185 251.5227,-183.9203 250.6967,-182.8807 249.8221,-181.88"/>
<polygon fill="none" stroke="#000000" points="252.0193,-179.1455 242.2915,-174.9479 247.2785,-184.2957 252.0193,-179.1455"/>
</g>
<!-- \\App\\Config\\tests\\units\\Database -->
<g id="node5" class="node">
<title>\\App\\Config\\tests\\units\\Database</title>
<polygon fill="none" stroke="#000000" points="401.2924,-452 330.2924,-452 330.2924,-416 401.2924,-416 401.2924,-452"/>
<text text-anchor="middle" x="365.7924" y="-431.2" font-family="Courier,monospace" font-size="11.00" fill="#000000">Database</text>
</g>
<!-- \\atoum -->
<g id="node25" class="node">
<title>\\atoum</title>
<ellipse fill="none" stroke="#000000" cx="42.8962" cy="-596" rx="42.7926" ry="18"/>
<text text-anchor="middle" x="42.8962" y="-592.3" font-family="Times,serif" font-size="14.00" fill="#c0c0c0">\atoum</text>
</g>
<!-- \\App\\Config\\tests\\units\\Database&#45;&gt;\\atoum -->
<g id="edge5" class="edge">
<title>\\App\\Config\\tests\\units\\Database&#45;&gt;\\atoum</title>
<path fill="none" stroke="#000000" d="M330.0266,-428.1883C317.1923,-424.3001 303.803,-417.8147 295.2924,-407 195.8417,-280.6254 359.5548,-39.6437 199.7924,-58"/>
</g>
<!-- \\App\\Config\\tests\\units\\Locations -->
<g id="node6" class="node">
<title>\\App\\Config\\tests\\units\\Locations</title>
<polygon fill="none" stroke="#000000" points="404.2924,-398 327.2924,-398 327.2924,-362 404.2924,-362 404.2924,-398"/>
<text text-anchor="middle" x="365.7924" y="-377.2" font-family="Courier,monospace" font-size="11.00" fill="#000000">Locations</text>
</g>
<!-- \\App\\Config\\tests\\units\\Locations&#45;&gt;\\atoum -->
<g id="edge6" class="edge">
<title>\\App\\Config\\tests\\units\\Locations&#45;&gt;\\atoum</title>
<path fill="none" stroke="#000000" d="M327.2267,-373.1412C315.3317,-369.1661 303.2764,-362.8936 295.2924,-353 208.7472,-245.7545 336.7019,-42.2695 199.7924,-58"/>
</g>
<!-- \\App\\Config\\tests\\units\\Sessions -->
<g id="node7" class="node">
<title>\\App\\Config\\tests\\units\\Sessions</title>
<polygon fill="none" stroke="#000000" points="401.2924,-344 330.2924,-344 330.2924,-308 401.2924,-308 401.2924,-344"/>
<text text-anchor="middle" x="365.7924" y="-323.2" font-family="Courier,monospace" font-size="11.00" fill="#000000">Sessions</text>
</g>
<!-- \\App\\Config\\tests\\units\\Sessions&#45;&gt;\\atoum -->
<g id="edge7" class="edge">
<title>\\App\\Config\\tests\\units\\Sessions&#45;&gt;\\atoum</title>
<path fill="none" stroke="#000000" d="M329.9979,-319.802C317.3174,-315.868 304.0416,-309.4522 295.2924,-299 229.9432,-220.9313 320.3307,-149.7366 252.2924,-74 235.9909,-55.8541 224.0258,-55.2156 199.7924,-58"/>
</g>
<!-- \\App\\Config\\tests\\units\\Errors -->
<g id="node8" class="node">
<title>\\App\\Config\\tests\\units\\Errors</title>
<polygon fill="none" stroke="#000000" points="394.2924,-290 337.2924,-290 337.2924,-254 394.2924,-254 394.2924,-290"/>
<text text-anchor="middle" x="365.7924" y="-269.2" font-family="Courier,monospace" font-size="11.00" fill="#000000">Errors</text>
</g>
<!-- \\App\\Config\\tests\\units\\Errors&#45;&gt;\\atoum -->
<g id="edge8" class="edge">
<title>\\App\\Config\\tests\\units\\Errors&#45;&gt;\\atoum</title>
<path fill="none" stroke="#000000" d="M337.2196,-269.6649C322.7847,-267.0242 306.088,-261.4965 295.2924,-250 240.1714,-191.3006 307.6086,-132.5155 252.2924,-74 235.5354,-56.2739 224.0258,-55.2156 199.7924,-58"/>
<path fill="none" stroke="#000000" d="M199.7924,-58C172.1609,-61.1748 158.1987,-53.6007 139.2924,-74 71.4392,-147.2116 49.3956,-470.3059 44.2202,-567.9532"/>
<polygon fill="none" stroke="#000000" points="40.7239,-567.7934 43.7078,-577.9593 47.7147,-568.1514 40.7239,-567.7934"/>
</g>
<!-- \\App\\Config\\Database -->
<g id="node9" class="node">
<title>\\App\\Config\\Database</title>
<polygon fill="none" stroke="#000000" points="401.2924,-230 330.2924,-230 330.2924,-194 401.2924,-194 401.2924,-230"/>
<text text-anchor="middle" x="365.7924" y="-209.2" font-family="Courier,monospace" font-size="11.00" fill="#000000">Database</text>
</g>
<!-- \\App\\Config\\Locations -->
<g id="node10" class="node">
<title>\\App\\Config\\Locations</title>
<polygon fill="none" stroke="#000000" points="404.2924,-176 327.2924,-176 327.2924,-140 404.2924,-140 404.2924,-176"/>
<text text-anchor="middle" x="365.7924" y="-155.2" font-family="Courier,monospace" font-size="11.00" fill="#000000">Locations</text>
</g>
<!-- \\App\\Config\\Sessions -->
<g id="node11" class="node">
<title>\\App\\Config\\Sessions</title>
<polygon fill="none" stroke="#000000" points="401.2924,-122 330.2924,-122 330.2924,-86 401.2924,-86 401.2924,-122"/>
<text text-anchor="middle" x="365.7924" y="-101.2" font-family="Courier,monospace" font-size="11.00" fill="#000000">Sessions</text>
</g>
<!-- \\App\\Config\\Errors -->
<g id="node12" class="node">
<title>\\App\\Config\\Errors</title>
<polygon fill="none" stroke="#000000" points="394.2924,-68 337.2924,-68 337.2924,-32 394.2924,-32 394.2924,-68"/>
<text text-anchor="middle" x="365.7924" y="-47.2" font-family="Courier,monospace" font-size="11.00" fill="#000000">Errors</text>
</g>
<!-- \\Core\\Helpers\\Arrays -->
<g id="node13" class="node">
<title>\\Core\\Helpers\\Arrays</title>
<polygon fill="none" stroke="#000000" points="228.2924,-776 171.2924,-776 171.2924,-740 228.2924,-740 228.2924,-776"/>
<text text-anchor="middle" x="199.7924" y="-755.2" font-family="Courier,monospace" font-size="11.00" fill="#000000">Arrays</text>
</g>
<!-- \\Core\\tests\\units\\Arrays -->
<g id="node14" class="node">
<title>\\Core\\tests\\units\\Arrays</title>
<polygon fill="none" stroke="#000000" points="228.2924,-668 171.2924,-668 171.2924,-632 228.2924,-632 228.2924,-668"/>
<text text-anchor="middle" x="199.7924" y="-647.2" font-family="Courier,monospace" font-size="11.00" fill="#000000">Arrays</text>
</g>
<!-- \\Core\\tests\\units\\Arrays&#45;&gt;\\atoum -->
<g id="edge9" class="edge">
<title>\\Core\\tests\\units\\Arrays&#45;&gt;\\atoum</title>
<path fill="none" stroke="#000000" d="M171.0152,-640.0956C147.1418,-631.8789 112.8426,-620.0739 85.7399,-610.7458"/>
<polygon fill="none" stroke="#000000" points="86.7076,-607.3774 76.1129,-607.4324 84.4295,-613.9964 86.7076,-607.3774"/>
</g>
<!-- \\Core\\tests\\units\\Files -->
<g id="node15" class="node">
<title>\\Core\\tests\\units\\Files</title>
<polygon fill="none" stroke="#000000" points="226.7924,-614 172.7924,-614 172.7924,-578 226.7924,-578 226.7924,-614"/>
<text text-anchor="middle" x="199.7924" y="-593.2" font-family="Courier,monospace" font-size="11.00" fill="#000000">Files</text>
</g>
<!-- \\Core\\tests\\units\\Files&#45;&gt;\\atoum -->
<g id="edge10" class="edge">
<title>\\Core\\tests\\units\\Files&#45;&gt;\\atoum</title>
<path fill="none" stroke="#000000" d="M172.4632,-596C151.4743,-596 121.8383,-596 96.2061,-596"/>
<polygon fill="none" stroke="#000000" points="95.8725,-592.5001 85.8725,-596 95.8725,-599.5001 95.8725,-592.5001"/>
</g>
<!-- \\Core\\Session -->
<g id="node16" class="node">
<title>\\Core\\Session</title>
<polygon fill="none" stroke="#000000" points="231.7924,-554 167.7924,-554 167.7924,-518 231.7924,-518 231.7924,-554"/>
<text text-anchor="middle" x="199.7924" y="-533.2" font-family="Courier,monospace" font-size="11.00" fill="#000000">Session</text>
</g>
<!-- \\Core\\Router -->
<g id="node17" class="node">
<title>\\Core\\Router</title>
<polygon fill="none" stroke="#000000" points="228.2924,-500 171.2924,-500 171.2924,-464 228.2924,-464 228.2924,-500"/>
<text text-anchor="middle" x="199.7924" y="-479.2" font-family="Courier,monospace" font-size="11.00" fill="#000000">Router</text>
</g>
<!-- \\Core\\View -->
<g id="node18" class="node">
<title>\\Core\\View</title>
<polygon fill="none" stroke="#000000" points="226.7924,-446 172.7924,-446 172.7924,-410 226.7924,-410 226.7924,-446"/>
<text text-anchor="middle" x="199.7924" y="-425.2" font-family="Courier,monospace" font-size="11.00" fill="#000000">View</text>
</g>
<!-- \\Core\\Sanitize -->
<g id="node19" class="node">
<title>\\Core\\Sanitize</title>
<polygon fill="none" stroke="#000000" points="235.2924,-392 164.2924,-392 164.2924,-356 235.2924,-356 235.2924,-392"/>
<text text-anchor="middle" x="199.7924" y="-371.2" font-family="Courier,monospace" font-size="11.00" fill="#000000">Sanitize</text>
</g>
<!-- \\Core\\Error -->
<g id="node20" class="node">
<title>\\Core\\Error</title>
<polygon fill="none" stroke="#000000" points="226.7924,-338 172.7924,-338 172.7924,-302 226.7924,-302 226.7924,-338"/>
<text text-anchor="middle" x="199.7924" y="-317.2" font-family="Courier,monospace" font-size="11.00" fill="#000000">Error</text>
</g>
<!-- \\Core\\Arrays -->
<g id="node22" class="node">
<title>\\Core\\Arrays</title>
<polygon fill="none" stroke="#000000" points="228.2924,-230 171.2924,-230 171.2924,-194 228.2924,-194 228.2924,-230"/>
<text text-anchor="middle" x="199.7924" y="-209.2" font-family="Courier,monospace" font-size="11.00" fill="#000000">Arrays</text>
</g>
<!-- \\Core\\Files -->
<g id="node24" class="node">
<title>\\Core\\Files</title>
<polygon fill="none" stroke="#000000" points="226.7924,-122 172.7924,-122 172.7924,-86 226.7924,-86 226.7924,-122"/>
<text text-anchor="middle" x="199.7924" y="-101.2" font-family="Courier,monospace" font-size="11.00" fill="#000000">Files</text>
</g>
</g>
</svg>
