<?xml version="1.0" encoding="UTF-8" standalone="no"?>
<!DOCTYPE svg PUBLIC "-//W3C//DTD SVG 1.1//EN"
 "http://www.w3.org/Graphics/SVG/1.1/DTD/svg11.dtd">
<!-- Generated by graphviz version 2.40.1 (20161225.0304)
 -->
<!-- Title: G Pages: 1 -->
<svg width="447pt" height="876pt"
 viewBox="0.00 0.00 447.29 876.00" xmlns="http://www.w3.org/2000/svg" xmlns:xlink="http://www.w3.org/1999/xlink">
<g id="graph0" class="graph" transform="scale(1 1) rotate(0) translate(4 872)">
<title>G</title>
<polygon fill="#ffffff" stroke="transparent" points="-4,4 -4,-872 443.2935,-872 443.2935,4 -4,4"/>
<g id="clust1" class="cluster">
<title>cluster_Global</title>
<path fill="none" stroke="#c0c0c0" d="M138.2935,-8C138.2935,-8 419.2935,-8 419.2935,-8 425.2935,-8 431.2935,-14 431.2935,-20 431.2935,-20 431.2935,-848 431.2935,-848 431.2935,-854 425.2935,-860 419.2935,-860 419.2935,-860 138.2935,-860 138.2935,-860 132.2935,-860 126.2935,-854 126.2935,-848 126.2935,-848 126.2935,-20 126.2935,-20 126.2935,-14 132.2935,-8 138.2935,-8"/>
<text text-anchor="middle" x="278.7935" y="-847.2" font-family="Times,serif" font-size="11.00" fill="#c0c0c0">Global</text>
</g>
<g id="clust2" class="cluster">
<title>cluster_\App</title>
<path fill="none" stroke="#c0c0c0" d="M294.2935,-16C294.2935,-16 411.2935,-16 411.2935,-16 417.2935,-16 423.2935,-22 423.2935,-28 423.2935,-28 423.2935,-820 423.2935,-820 423.2935,-826 417.2935,-832 411.2935,-832 411.2935,-832 294.2935,-832 294.2935,-832 288.2935,-832 282.2935,-826 282.2935,-820 282.2935,-820 282.2935,-28 282.2935,-28 282.2935,-22 288.2935,-16 294.2935,-16"/>
<text text-anchor="middle" x="352.7935" y="-819.2" font-family="Times,serif" font-size="11.00" fill="#c0c0c0">App</text>
</g>
<g id="clust3" class="cluster">
<title>cluster_\App\Controllers</title>
<path fill="none" stroke="#c0c0c0" d="M328.2935,-678C328.2935,-678 377.2935,-678 377.2935,-678 383.2935,-678 389.2935,-684 389.2935,-690 389.2935,-690 389.2935,-792 389.2935,-792 389.2935,-798 383.2935,-804 377.2935,-804 377.2935,-804 328.2935,-804 328.2935,-804 322.2935,-804 316.2935,-798 316.2935,-792 316.2935,-792 316.2935,-690 316.2935,-690 316.2935,-684 322.2935,-678 328.2935,-678"/>
<text text-anchor="middle" x="352.7935" y="-791.2" font-family="Times,serif" font-size="11.00" fill="#c0c0c0">Controllers</text>
</g>
<g id="clust4" class="cluster">
<title>cluster_\App\Models</title>
<path fill="none" stroke="#c0c0c0" d="M304.7935,-544C304.7935,-544 400.7935,-544 400.7935,-544 406.7935,-544 412.7935,-550 412.7935,-556 412.7935,-556 412.7935,-658 412.7935,-658 412.7935,-664 406.7935,-670 400.7935,-670 400.7935,-670 304.7935,-670 304.7935,-670 298.7935,-670 292.7935,-664 292.7935,-658 292.7935,-658 292.7935,-556 292.7935,-556 292.7935,-550 298.7935,-544 304.7935,-544"/>
<text text-anchor="middle" x="352.7935" y="-657.2" font-family="Times,serif" font-size="11.00" fill="#c0c0c0">Models</text>
</g>
<g id="clust5" class="cluster">
<title>cluster_\App\Config</title>
<path fill="none" stroke="#c0c0c0" d="M302.2935,-24C302.2935,-24 403.2935,-24 403.2935,-24 409.2935,-24 415.2935,-30 415.2935,-36 415.2935,-36 415.2935,-524 415.2935,-524 415.2935,-530 409.2935,-536 403.2935,-536 403.2935,-536 302.2935,-536 302.2935,-536 296.2935,-536 290.2935,-530 290.2935,-524 290.2935,-524 290.2935,-36 290.2935,-36 290.2935,-30 296.2935,-24 302.2935,-24"/>
<text text-anchor="middle" x="352.7935" y="-523.2" font-family="Times,serif" font-size="11.00" fill="#c0c0c0">Config</text>
</g>
<g id="clust6" class="cluster">
<title>cluster_\App\Config\tests</title>
<path fill="none" stroke="#c0c0c0" d="M310.2935,-238C310.2935,-238 395.2935,-238 395.2935,-238 401.2935,-238 407.2935,-244 407.2935,-250 407.2935,-250 407.2935,-496 407.2935,-496 407.2935,-502 401.2935,-508 395.2935,-508 395.2935,-508 310.2935,-508 310.2935,-508 304.2935,-508 298.2935,-502 298.2935,-496 298.2935,-496 298.2935,-250 298.2935,-250 298.2935,-244 304.2935,-238 310.2935,-238"/>
<text text-anchor="middle" x="352.7935" y="-495.2" font-family="Times,serif" font-size="11.00" fill="#c0c0c0">tests</text>
</g>
<g id="clust7" class="cluster">
<title>cluster_\App\Config\tests\units</title>
<path fill="none" stroke="#c0c0c0" d="M318.2935,-246C318.2935,-246 387.2935,-246 387.2935,-246 393.2935,-246 399.2935,-252 399.2935,-258 399.2935,-258 399.2935,-468 399.2935,-468 399.2935,-474 393.2935,-480 387.2935,-480 387.2935,-480 318.2935,-480 318.2935,-480 312.2935,-480 306.2935,-474 306.2935,-468 306.2935,-468 306.2935,-258 306.2935,-258 306.2935,-252 312.2935,-246 318.2935,-246"/>
<text text-anchor="middle" x="352.7935" y="-467.2" font-family="Times,serif" font-size="11.00" fill="#c0c0c0">units</text>
</g>
<g id="clust8" class="cluster">
<title>cluster_\Core</title>
<path fill="none" stroke="#c0c0c0" d="M146.2935,-78C146.2935,-78 227.2935,-78 227.2935,-78 233.2935,-78 239.2935,-84 239.2935,-90 239.2935,-90 239.2935,-820 239.2935,-820 239.2935,-826 233.2935,-832 227.2935,-832 227.2935,-832 146.2935,-832 146.2935,-832 140.2935,-832 134.2935,-826 134.2935,-820 134.2935,-820 134.2935,-90 134.2935,-90 134.2935,-84 140.2935,-78 146.2935,-78"/>
<text text-anchor="middle" x="186.7935" y="-819.2" font-family="Times,serif" font-size="11.00" fill="#c0c0c0">Core</text>
</g>
<g id="clust9" class="cluster">
<title>cluster_\Core\Helpers</title>
<path fill="none" stroke="#c0c0c0" d="M162.2935,-732C162.2935,-732 211.2935,-732 211.2935,-732 217.2935,-732 223.2935,-738 223.2935,-744 223.2935,-744 223.2935,-792 223.2935,-792 223.2935,-798 217.2935,-804 211.2935,-804 211.2935,-804 162.2935,-804 162.2935,-804 156.2935,-804 150.2935,-798 150.2935,-792 150.2935,-792 150.2935,-744 150.2935,-744 150.2935,-738 156.2935,-732 162.2935,-732"/>
<text text-anchor="middle" x="186.7935" y="-791.2" font-family="Times,serif" font-size="11.00" fill="#c0c0c0">Helpers</text>
</g>
<g id="clust10" class="cluster">
<title>cluster_\Core\tests</title>
<path fill="none" stroke="#c0c0c0" d="M154.2935,-562C154.2935,-562 219.2935,-562 219.2935,-562 225.2935,-562 231.2935,-568 231.2935,-574 231.2935,-574 231.2935,-712 231.2935,-712 231.2935,-718 225.2935,-724 219.2935,-724 219.2935,-724 154.2935,-724 154.2935,-724 148.2935,-724 142.2935,-718 142.2935,-712 142.2935,-712 142.2935,-574 142.2935,-574 142.2935,-568 148.2935,-562 154.2935,-562"/>
<text text-anchor="middle" x="186.7935" y="-711.2" font-family="Times,serif" font-size="11.00" fill="#c0c0c0">tests</text>
</g>
<g id="clust11" class="cluster">
<title>cluster_\Core\tests\units</title>
<path fill="none" stroke="#c0c0c0" d="M162.2935,-570C162.2935,-570 211.2935,-570 211.2935,-570 217.2935,-570 223.2935,-576 223.2935,-582 223.2935,-582 223.2935,-684 223.2935,-684 223.2935,-690 217.2935,-696 211.2935,-696 211.2935,-696 162.2935,-696 162.2935,-696 156.2935,-696 150.2935,-690 150.2935,-684 150.2935,-684 150.2935,-582 150.2935,-582 150.2935,-576 156.2935,-570 162.2935,-570"/>
<text text-anchor="middle" x="186.7935" y="-683.2" font-family="Times,serif" font-size="11.00" fill="#c0c0c0">units</text>
</g>
<!-- \\App\\Controllers\\Errors -->
<g id="node1" class="node">
<title>\\App\\Controllers\\Errors</title>
<polygon fill="none" stroke="#000000" points="381.2935,-776 324.2935,-776 324.2935,-740 381.2935,-740 381.2935,-776"/>
<text text-anchor="middle" x="352.7935" y="-755.2" font-family="Courier,monospace" font-size="11.00" fill="#000000">Errors</text>
</g>
<!-- \\Core\\Controller -->
<g id="node24" class="node">
<title>\\Core\\Controller</title>
<polygon fill="none" stroke="#000000" points="228.7935,-446 144.7935,-446 144.7935,-410 228.7935,-410 228.7935,-446"/>
<text text-anchor="middle" x="186.7935" y="-425.2" font-family="Courier,monospace" font-size="11.00" fill="#000000">Controller</text>
</g>
<!-- \\App\\Controllers\\Errors&#45;&gt;\\Core\\Controller -->
<g id="edge1" class="edge">
<title>\\App\\Controllers\\Errors&#45;&gt;\\Core\\Controller</title>
<path fill="none" stroke="#000000" d="M324.0406,-753.9485C309.3701,-750.3689 292.5102,-743.6392 282.2935,-731 204.2502,-634.4516 311.9484,-555.6659 239.2935,-455 238.5175,-453.9248 237.6858,-452.8893 236.8061,-451.8923"/>
<polygon fill="none" stroke="#000000" points="238.9891,-449.1457 229.2473,-444.9804 234.2653,-454.3116 238.9891,-449.1457"/>
</g>
<!-- \\App\\Controllers\\Home -->
<g id="node2" class="node">
<title>\\App\\Controllers\\Home</title>
<polygon fill="none" stroke="#000000" points="379.7935,-722 325.7935,-722 325.7935,-686 379.7935,-686 379.7935,-722"/>
<text text-anchor="middle" x="352.7935" y="-701.2" font-family="Courier,monospace" font-size="11.00" fill="#000000">Home</text>
</g>
<!-- \\App\\Controllers\\Home&#45;&gt;\\Core\\Controller -->
<g id="edge2" class="edge">
<title>\\App\\Controllers\\Home&#45;&gt;\\Core\\Controller</title>
<path fill="none" stroke="#000000" d="M325.5847,-698.9198C310.64,-694.7264 293.015,-687.2264 282.2935,-674 219.8316,-596.9447 298.9143,-534.2741 239.2935,-455 238.3887,-453.7969 237.4149,-452.643 236.383,-451.5366"/>
<polygon fill="none" stroke="#000000" points="238.6651,-448.8826 228.8449,-444.9059 234.0418,-454.1386 238.6651,-448.8826"/>
</g>
<!-- \\App\\Models\\TwigGlobals -->
<g id="node3" class="node">
<title>\\App\\Models\\TwigGlobals</title>
<polygon fill="none" stroke="#000000" points="398.2935,-642 307.2935,-642 307.2935,-606 398.2935,-606 398.2935,-642"/>
<text text-anchor="middle" x="352.7935" y="-621.2" font-family="Courier,monospace" font-size="11.00" fill="#000000">TwigGlobals</text>
</g>
<!-- \\Core\\Model -->
<g id="node18" class="node">
<title>\\Core\\Model</title>
<polygon fill="none" stroke="#000000" points="228.7935,-122 144.7935,-122 144.7935,-86 228.7935,-86 228.7935,-122"/>
<text text-anchor="start" x="152.7935" y="-107.2" font-family="Courier,monospace" font-size="11.00" fill="#000000">«abstract»</text>
<text text-anchor="start" x="169.7935" y="-95.2" font-family="Courier,monospace" font-size="11.00" fill="#000000">Model</text>
</g>
<!-- \\App\\Models\\TwigGlobals&#45;&gt;\\Core\\Model -->
<g id="edge3" class="edge">
<title>\\App\\Models\\TwigGlobals&#45;&gt;\\Core\\Model</title>
<path fill="none" stroke="#000000" d="M307.2602,-614.9611C297.6555,-610.9821 288.5476,-605.2519 282.2935,-597 219.4785,-514.1185 297.4891,-217.1878 239.2935,-131 238.4332,-129.7259 237.4935,-128.5083 236.4866,-127.3452"/>
<polygon fill="none" stroke="#000000" points="238.719,-124.6428 228.9963,-120.4334 233.9719,-129.7872 238.719,-124.6428"/>
</g>
<!-- \\App\\Models\\TwigFunctions -->
<g id="node4" class="node">
<title>\\App\\Models\\TwigFunctions</title>
<polygon fill="none" stroke="#000000" points="404.7935,-588 300.7935,-588 300.7935,-552 404.7935,-552 404.7935,-588"/>
<text text-anchor="middle" x="352.7935" y="-567.2" font-family="Courier,monospace" font-size="11.00" fill="#000000">TwigFunctions</text>
</g>
<!-- \\App\\Models\\TwigFunctions&#45;&gt;\\Core\\Model -->
<g id="edge4" class="edge">
<title>\\App\\Models\\TwigFunctions&#45;&gt;\\Core\\Model</title>
<path fill="none" stroke="#000000" d="M332.7251,-551.9937C316.221,-535.9101 293.7519,-510.8061 282.2935,-484 220.1724,-338.6717 329.6401,-260.6798 239.2935,-131 238.4147,-129.7386 237.4586,-128.5322 236.4373,-127.3789"/>
<polygon fill="none" stroke="#000000" points="238.6346,-124.6465 228.879,-120.5139 233.9282,-129.8282 238.6346,-124.6465"/>
</g>
<!-- \\App\\Config\\tests\\units\\Locations -->
<g id="node5" class="node">
<title>\\App\\Config\\tests\\units\\Locations</title>
<polygon fill="none" stroke="#000000" points="391.2935,-452 314.2935,-452 314.2935,-416 391.2935,-416 391.2935,-452"/>
<text text-anchor="middle" x="352.7935" y="-431.2" font-family="Courier,monospace" font-size="11.00" fill="#000000">Locations</text>
</g>
<!-- \\atoum -->
<g id="node25" class="node">
<title>\\atoum</title>
<ellipse fill="none" stroke="#000000" cx="36.3968" cy="-596" rx="36.2938" ry="18"/>
<text text-anchor="middle" x="36.3968" y="-592.3" font-family="Times,serif" font-size="14.00" fill="#c0c0c0">\atoum</text>
</g>
<!-- \\App\\Config\\tests\\units\\Locations&#45;&gt;\\atoum -->
<g id="edge5" class="edge">
<title>\\App\\Config\\tests\\units\\Locations&#45;&gt;\\atoum</title>
<path fill="none" stroke="#000000" d="M314.0869,-427.2535C302.1815,-423.2867 290.1557,-416.9907 282.2935,-407 182.8428,-280.6254 346.451,-38.7518 186.7935,-58"/>
</g>
<!-- \\App\\Config\\tests\\units\\Errors -->
<g id="node6" class="node">
<title>\\App\\Config\\tests\\units\\Errors</title>
<polygon fill="none" stroke="#000000" points="381.2935,-398 324.2935,-398 324.2935,-362 381.2935,-362 381.2935,-398"/>
<text text-anchor="middle" x="352.7935" y="-377.2" font-family="Courier,monospace" font-size="11.00" fill="#000000">Errors</text>
</g>
<!-- \\App\\Config\\tests\\units\\Errors&#45;&gt;\\atoum -->
<g id="edge6" class="edge">
<title>\\App\\Config\\tests\\units\\Errors&#45;&gt;\\atoum</title>
<path fill="none" stroke="#000000" d="M324.0324,-375.9552C309.3595,-372.3775 292.4999,-365.6475 282.2935,-353 195.7484,-245.7545 323.613,-41.5051 186.7935,-58"/>
</g>
<!-- \\App\\Config\\tests\\units\\Sessions -->
<g id="node7" class="node">
<title>\\App\\Config\\tests\\units\\Sessions</title>
<polygon fill="none" stroke="#000000" points="388.2935,-344 317.2935,-344 317.2935,-308 388.2935,-308 388.2935,-344"/>
<text text-anchor="middle" x="352.7935" y="-323.2" font-family="Courier,monospace" font-size="11.00" fill="#000000">Sessions</text>
</g>
<!-- \\App\\Config\\tests\\units\\Sessions&#45;&gt;\\atoum -->
<g id="edge7" class="edge">
<title>\\App\\Config\\tests\\units\\Sessions&#45;&gt;\\atoum</title>
<path fill="none" stroke="#000000" d="M316.999,-319.802C304.3185,-315.868 291.0428,-309.4522 282.2935,-299 216.9443,-220.9313 307.3318,-149.7366 239.2935,-74 222.9921,-55.8541 211.0111,-55.0803 186.7935,-58"/>
</g>
<!-- \\App\\Config\\tests\\units\\Database -->
<g id="node8" class="node">
<title>\\App\\Config\\tests\\units\\Database</title>
<polygon fill="none" stroke="#000000" points="388.2935,-290 317.2935,-290 317.2935,-254 388.2935,-254 388.2935,-290"/>
<text text-anchor="middle" x="352.7935" y="-269.2" font-family="Courier,monospace" font-size="11.00" fill="#000000">Database</text>
</g>
<!-- \\App\\Config\\tests\\units\\Database&#45;&gt;\\atoum -->
<g id="edge8" class="edge">
<title>\\App\\Config\\tests\\units\\Database&#45;&gt;\\atoum</title>
<path fill="none" stroke="#000000" d="M317.035,-268.1345C304.512,-265.0688 291.3338,-259.6271 282.2935,-250 227.1725,-191.3006 294.6098,-132.5155 239.2935,-74 222.5366,-56.2739 211.0111,-55.0803 186.7935,-58"/>
<path fill="none" stroke="#000000" d="M186.7935,-58C159.1802,-61.3291 145.0764,-53.487 126.2935,-74 59.0283,-147.4613 41.2316,-470.3827 37.3486,-567.9709"/>
<polygon fill="none" stroke="#000000" points="33.851,-567.8452 36.9687,-577.9709 40.8459,-568.111 33.851,-567.8452"/>
</g>
<!-- \\App\\Config\\Locations -->
<g id="node9" class="node">
<title>\\App\\Config\\Locations</title>
<polygon fill="none" stroke="#000000" points="391.2935,-230 314.2935,-230 314.2935,-194 391.2935,-194 391.2935,-230"/>
<text text-anchor="middle" x="352.7935" y="-209.2" font-family="Courier,monospace" font-size="11.00" fill="#000000">Locations</text>
</g>
<!-- \\App\\Config\\Errors -->
<g id="node10" class="node">
<title>\\App\\Config\\Errors</title>
<polygon fill="none" stroke="#000000" points="381.2935,-176 324.2935,-176 324.2935,-140 381.2935,-140 381.2935,-176"/>
<text text-anchor="middle" x="352.7935" y="-155.2" font-family="Courier,monospace" font-size="11.00" fill="#000000">Errors</text>
</g>
<!-- \\App\\Config\\Sessions -->
<g id="node11" class="node">
<title>\\App\\Config\\Sessions</title>
<polygon fill="none" stroke="#000000" points="388.2935,-122 317.2935,-122 317.2935,-86 388.2935,-86 388.2935,-122"/>
<text text-anchor="middle" x="352.7935" y="-101.2" font-family="Courier,monospace" font-size="11.00" fill="#000000">Sessions</text>
</g>
<!-- \\App\\Config\\Database -->
<g id="node12" class="node">
<title>\\App\\Config\\Database</title>
<polygon fill="none" stroke="#000000" points="388.2935,-68 317.2935,-68 317.2935,-32 388.2935,-32 388.2935,-68"/>
<text text-anchor="middle" x="352.7935" y="-47.2" font-family="Courier,monospace" font-size="11.00" fill="#000000">Database</text>
</g>
<!-- \\Core\\Helpers\\Arrays -->
<g id="node13" class="node">
<title>\\Core\\Helpers\\Arrays</title>
<polygon fill="none" stroke="#000000" points="215.2935,-776 158.2935,-776 158.2935,-740 215.2935,-740 215.2935,-776"/>
<text text-anchor="middle" x="186.7935" y="-755.2" font-family="Courier,monospace" font-size="11.00" fill="#000000">Arrays</text>
</g>
<!-- \\Core\\tests\\units\\Arrays -->
<g id="node14" class="node">
<title>\\Core\\tests\\units\\Arrays</title>
<polygon fill="none" stroke="#000000" points="215.2935,-668 158.2935,-668 158.2935,-632 215.2935,-632 215.2935,-668"/>
<text text-anchor="middle" x="186.7935" y="-647.2" font-family="Courier,monospace" font-size="11.00" fill="#000000">Arrays</text>
</g>
<!-- \\Core\\tests\\units\\Arrays&#45;&gt;\\atoum -->
<g id="edge9" class="edge">
<title>\\Core\\tests\\units\\Arrays&#45;&gt;\\atoum</title>
<path fill="none" stroke="#000000" d="M158.1511,-639.7159C134.7236,-631.3043 101.3571,-619.324 75.4765,-610.0316"/>
<polygon fill="none" stroke="#000000" points="76.5548,-606.7 65.9603,-606.6148 74.1893,-613.2882 76.5548,-606.7"/>
</g>
<!-- \\Core\\tests\\units\\Files -->
<g id="node15" class="node">
<title>\\Core\\tests\\units\\Files</title>
<polygon fill="none" stroke="#000000" points="213.7935,-614 159.7935,-614 159.7935,-578 213.7935,-578 213.7935,-614"/>
<text text-anchor="middle" x="186.7935" y="-593.2" font-family="Courier,monospace" font-size="11.00" fill="#000000">Files</text>
</g>
<!-- \\Core\\tests\\units\\Files&#45;&gt;\\atoum -->
<g id="edge10" class="edge">
<title>\\Core\\tests\\units\\Files&#45;&gt;\\atoum</title>
<path fill="none" stroke="#000000" d="M159.5578,-596C138.2799,-596 108.2089,-596 83.1075,-596"/>
<polygon fill="none" stroke="#000000" points="83.0512,-592.5001 73.0512,-596 83.0512,-599.5001 83.0512,-592.5001"/>
</g>
<!-- \\Core\\Arrays -->
<g id="node16" class="node">
<title>\\Core\\Arrays</title>
<polygon fill="none" stroke="#000000" points="215.2935,-554 158.2935,-554 158.2935,-518 215.2935,-518 215.2935,-554"/>
<text text-anchor="middle" x="186.7935" y="-533.2" font-family="Courier,monospace" font-size="11.00" fill="#000000">Arrays</text>
</g>
<!-- \\Core\\View -->
<g id="node17" class="node">
<title>\\Core\\View</title>
<polygon fill="none" stroke="#000000" points="213.7935,-500 159.7935,-500 159.7935,-464 213.7935,-464 213.7935,-500"/>
<text text-anchor="middle" x="186.7935" y="-479.2" font-family="Courier,monospace" font-size="11.00" fill="#000000">View</text>
</g>
<!-- \\Core\\Sanitize -->
<g id="node19" class="node">
<title>\\Core\\Sanitize</title>
<polygon fill="none" stroke="#000000" points="222.2935,-392 151.2935,-392 151.2935,-356 222.2935,-356 222.2935,-392"/>
<text text-anchor="middle" x="186.7935" y="-371.2" font-family="Courier,monospace" font-size="11.00" fill="#000000">Sanitize</text>
</g>
<!-- \\Core\\Session -->
<g id="node20" class="node">
<title>\\Core\\Session</title>
<polygon fill="none" stroke="#000000" points="218.7935,-338 154.7935,-338 154.7935,-302 218.7935,-302 218.7935,-338"/>
<text text-anchor="middle" x="186.7935" y="-317.2" font-family="Courier,monospace" font-size="11.00" fill="#000000">Session</text>
</g>
<!-- \\Core\\Files -->
<g id="node21" class="node">
<title>\\Core\\Files</title>
<polygon fill="none" stroke="#000000" points="213.7935,-284 159.7935,-284 159.7935,-248 213.7935,-248 213.7935,-284"/>
<text text-anchor="middle" x="186.7935" y="-263.2" font-family="Courier,monospace" font-size="11.00" fill="#000000">Files</text>
</g>
<!-- \\Core\\Router -->
<g id="node22" class="node">
<title>\\Core\\Router</title>
<polygon fill="none" stroke="#000000" points="215.2935,-230 158.2935,-230 158.2935,-194 215.2935,-194 215.2935,-230"/>
<text text-anchor="middle" x="186.7935" y="-209.2" font-family="Courier,monospace" font-size="11.00" fill="#000000">Router</text>
</g>
<!-- \\Core\\Error -->
<g id="node23" class="node">
<title>\\Core\\Error</title>
<polygon fill="none" stroke="#000000" points="213.7935,-176 159.7935,-176 159.7935,-140 213.7935,-140 213.7935,-176"/>
<text text-anchor="middle" x="186.7935" y="-155.2" font-family="Courier,monospace" font-size="11.00" fill="#000000">Error</text>
</g>
</g>
</svg>
